<svg width="24" height="24" viewBox="0 0 24 24" fill="none" xmlns="http://www.w3.org/2000/svg">
<path d="M17.8877 21.456L17.6973 21.458C17.801 21.4593 17.9047 21.4546 18.0078 21.4473C17.9678 21.4501 17.9278 21.4545 17.8877 21.456ZM8.98633 20.833C8.43329 21.0773 7.90723 21.2485 7.40918 21.3496C7.80114 21.27 8.21065 21.1479 8.63672 20.9795L8.98633 20.833ZM19.1807 21.1699C19.0284 21.2336 18.8715 21.2853 18.7129 21.3281C18.8102 21.3018 18.9069 21.2734 19.002 21.2393L19.1807 21.1699ZM5.09473 21.2393C5.18693 21.2724 5.28069 21.3004 5.375 21.3262C5.34179 21.3171 5.30836 21.3088 5.27539 21.2988L5.09473 21.2393ZM16.9541 2.69628C18.2788 2.48189 19.3687 2.8179 20.248 3.69921L20.4062 3.86718C21.1672 4.71859 21.4496 5.75637 21.249 7.00097C21.0324 8.3442 20.2511 9.93316 18.876 11.7646L18.7617 11.918L18.877 12.0713C20.2535 13.9022 21.0338 15.4901 21.25 16.833C21.4503 18.0777 21.1675 19.1162 20.4062 19.9678L20.248 20.1357L20.2451 20.1396C19.916 20.4817 19.5195 20.7525 19.082 20.9355C18.6993 21.0956 18.2914 21.1852 17.8779 21.2012L17.7002 21.2041H17.6973C16.2166 21.204 14.3834 20.4079 12.2012 18.7617L12.0488 18.6465L11.8965 18.7617C9.84982 20.305 8.11036 21.1008 6.68164 21.1943L6.40039 21.2041H6.39746C5.92331 21.2101 5.45223 21.1186 5.01465 20.9355C4.63183 20.7753 4.28072 20.5482 3.97852 20.2646L3.85254 20.1396L3.84961 20.1357L3.69043 19.9678C2.92964 19.1163 2.64793 18.0778 2.84863 16.833C3.06532 15.4898 3.84569 13.9012 5.2207 12.0703L5.33594 11.918L5.2207 11.7646C3.84559 9.9332 3.06532 8.34417 2.84863 7.00097C2.63458 5.67346 2.96963 4.58094 3.84961 3.69921C4.72974 2.81766 5.82007 2.48177 7.14453 2.69628C8.48461 2.91343 10.0697 3.696 11.8965 5.07421L12.0488 5.18945L12.2012 5.07421C14.0285 3.69586 15.6138 2.91329 16.9541 2.69628ZM2.85742 19.1562C2.98324 19.4357 3.14577 19.7006 3.34473 19.9512L3.5 20.1357C3.28278 19.8924 3.10203 19.6346 2.95801 19.3623L2.85742 19.1562ZM5.84277 13.0488C5.02615 14.1806 4.34409 15.3615 4.04688 16.4492C3.75855 17.5048 3.82487 18.5162 4.53516 19.29V19.2988L4.60938 19.373C5.39017 20.1574 6.43394 20.238 7.52344 19.9385C8.60817 19.6402 9.78602 18.9563 10.915 18.1367L11.1777 17.9463L10.9297 17.7363C10.1514 17.0753 9.34489 16.3281 8.49609 15.4766C7.6472 14.6249 6.90205 13.8132 6.24121 13.0332L6.03223 12.7861L5.84277 13.0488ZM17.8516 13.0332C17.1919 13.8159 16.4468 14.6263 15.5986 15.4756C14.7504 16.325 13.9404 17.075 13.1641 17.7363L12.917 17.9473L13.1797 18.1367C14.3089 18.9548 15.4866 19.6372 16.5713 19.9346C17.5752 20.2097 18.5384 20.1616 19.2949 19.54L19.3086 19.5537L19.4873 19.374C20.2698 18.5906 20.35 17.5439 20.0508 16.4512C19.7528 15.3633 19.0694 14.1823 18.251 13.0488L18.0615 12.7852L17.8516 13.0332ZM17.2109 19.8086C17.3355 19.8257 17.458 19.8363 17.5781 19.8398L17.3965 19.8301L17.2109 19.8086ZM11.6406 19.2656L11.2393 19.5478C11.5042 19.3664 11.7742 19.1719 12.0488 18.9648C11.9116 19.0683 11.7754 19.1686 11.6406 19.2656ZM19.3057 19.1914C19.2193 19.2779 19.1288 19.3547 19.0352 19.4228L18.8916 19.5185C19.0373 19.4295 19.175 19.3203 19.3047 19.1904L19.3057 19.1914ZM19.9248 17.9883C19.8604 18.3832 19.7024 18.7449 19.4316 19.0615L19.54 18.9228C19.7108 18.6876 19.8252 18.4304 19.8906 18.1553L19.9248 17.9883ZM4.46191 18.7754C4.55087 18.9216 4.6593 19.0603 4.78906 19.1904V19.1914C4.70264 19.1048 4.62572 19.0138 4.55762 18.9199L4.46191 18.7754ZM11.8867 6.7041C10.9117 7.51478 10.0006 8.3725 9.25586 9.11816C8.51078 9.86416 7.6557 10.7785 6.84766 11.7559L6.71289 11.918L6.84766 12.0801C7.65527 13.0569 8.51 13.9781 9.25586 14.7217C10.0005 15.464 10.9115 16.3209 11.8867 17.1309L12.0488 17.2656L12.2109 17.1309C13.1855 16.3214 14.0969 15.4723 14.8428 14.7207C15.5873 13.9705 16.442 13.0573 17.25 12.0801L17.3848 11.918L17.25 11.7559C16.4425 10.7792 15.5955 9.86574 14.8457 9.11816C14.0973 8.37202 13.1863 7.51244 12.2109 6.70312L12.0488 6.56933L11.8867 6.7041ZM2.64746 16.5273C2.62879 16.6167 2.61276 16.7053 2.59863 16.793L2.5625 17.0527C2.57207 16.967 2.58356 16.8804 2.59766 16.793L2.64746 16.5273ZM12.0488 16.9355L11.6895 16.6318C11.6309 16.5817 11.5736 16.5297 11.5156 16.4795C11.6912 16.6318 11.8682 16.7855 12.0488 16.9355ZM19.6816 16.123C19.7286 16.2565 19.7709 16.3882 19.8066 16.5185L19.8555 16.7139C19.8406 16.6495 19.8235 16.5848 19.8057 16.5195L19.6816 16.123ZM7.11133 14.4004C7.4884 14.8097 7.88967 15.2281 8.31641 15.6562L8.94824 16.2783C8.96471 16.2942 8.98161 16.3103 8.99805 16.3262C8.77357 16.11 8.54564 15.8872 8.31543 15.6562C8.1022 15.4423 7.89581 15.2306 7.69531 15.0215L7.11133 14.4004ZM2.78711 15.9805L2.70996 16.2568C2.75642 16.0744 2.8123 15.8886 2.87695 15.6992L2.78711 15.9805ZM13.3496 15.7969C13.192 15.9409 13.0311 16.0857 12.8672 16.2305C13.0311 16.0857 13.1921 15.9409 13.3496 15.7969ZM11.1895 16.1943C11.0705 16.0886 10.9535 15.9823 10.8379 15.8769C10.9535 15.9823 11.0705 16.0886 11.1895 16.1943ZM14.6631 14.541L14.0781 15.1172C13.8941 15.2944 13.7019 15.4742 13.5049 15.6562C13.9203 15.2723 14.31 14.8959 14.6621 14.541C14.7621 14.4403 14.8632 14.3358 14.9668 14.2295C14.8634 14.3357 14.7629 14.4404 14.6631 14.541ZM10.5576 15.6201C10.4562 15.5259 10.3569 15.4317 10.2588 15.3389C10.3569 15.4317 10.4562 15.5259 10.5576 15.6201ZM18.3428 13.6201C18.4392 13.7613 18.5327 13.9027 18.623 14.0439L18.8838 14.4678C18.7169 14.1863 18.5355 13.9034 18.3428 13.6211L18.0459 13.1973L18.3428 13.6201ZM11.8838 13.5273L12.0488 13.5352C12.0842 13.5352 12.1195 13.5325 12.1543 13.5303C12.1195 13.5325 12.0842 13.5361 12.0488 13.5361L11.8838 13.5273ZM12.0488 10.5566C12.7995 10.5566 13.4082 11.1665 13.4082 11.9189C13.4081 12.6714 12.7995 13.2812 12.0488 13.2812C11.2983 13.2811 10.6895 12.6713 10.6895 11.9189C10.6895 11.1665 11.2982 10.5568 12.0488 10.5566ZM13.6299 12.2451C13.6262 12.2633 13.6196 12.2808 13.6152 12.2988C13.6204 12.2773 13.6275 12.2562 13.6318 12.2344L13.6299 12.2451ZM10.4443 11.7539C10.4389 11.8081 10.4365 11.8633 10.4365 11.9189L10.4434 12.0586C10.4394 12.0125 10.4355 11.966 10.4355 11.9189L10.4443 11.7539ZM13.6035 11.4912C13.6268 11.5763 13.6452 11.6638 13.6543 11.7539L13.6621 11.9189C13.6621 11.7708 13.6407 11.6275 13.6035 11.4912ZM7.04297 11.918C7.22005 11.7038 7.39908 11.4922 7.5791 11.2852C7.39904 11.4922 7.22007 11.7038 7.04297 11.918ZM16.5107 11.2764C16.6539 11.4412 16.7957 11.6096 16.9375 11.7793C16.7957 11.6096 16.6538 11.4413 16.5107 11.2764ZM6.18359 3.74023C5.93178 3.7584 5.68375 3.81557 5.44824 3.90917C5.13443 4.03399 4.84903 4.2216 4.61035 4.46093C3.82796 5.24423 3.74733 6.29067 4.0459 7.38281C4.34333 8.47043 5.02623 9.6511 5.84277 10.7832L6.03223 11.0469L6.24121 10.7988C6.90175 10.016 7.6446 9.20714 8.49512 8.35546C9.34543 7.504 10.1564 6.75901 10.9346 6.09667L11.1807 5.88671L10.9189 5.69628C10.1582 5.14472 9.37789 4.65655 8.62109 4.30566C7.86933 3.95717 7.12499 3.737 6.43652 3.73535L6.18359 3.74023ZM17.6611 3.73535C16.9727 3.73699 16.2283 3.95718 15.4766 4.30566C14.7197 4.65654 13.9395 5.1447 13.1787 5.69628L12.917 5.88671L13.1631 6.09667C13.9413 6.75903 14.7532 7.50436 15.6016 8.35546C16.4504 9.20701 17.1946 10.019 17.8545 10.7988L18.0645 11.0459L18.2549 10.7832C19.0717 9.65119 19.7535 8.47039 20.0508 7.38281C20.3306 6.35888 20.2774 5.37498 19.626 4.61035L19.4873 4.45996C19.2484 4.22101 18.9631 4.03385 18.6494 3.90917C18.3745 3.8 18.0821 3.74053 17.7871 3.73437L17.6611 3.73535ZM15.9395 10.6348C16.059 10.7662 16.1788 10.9002 16.2988 11.0361C16.1788 10.9002 16.0589 10.7663 15.9395 10.6348ZM7.81934 11.0146C7.93937 10.8794 8.05927 10.7461 8.17871 10.6152C8.05925 10.7461 7.93939 10.8794 7.81934 11.0146ZM5.52051 9.8623C5.59583 9.97871 5.67261 10.0956 5.75195 10.2119L6.04785 10.6348C5.86301 10.3785 5.68716 10.1199 5.52051 9.8623ZM18.6221 9.79296C18.5298 9.93713 18.4344 10.0815 18.3359 10.2256L18.0488 10.6348C18.2505 10.3553 18.4424 10.0738 18.6221 9.79296ZM8.86133 9.88378C8.68447 10.0681 8.5044 10.2597 8.32227 10.457C8.35268 10.4241 8.38277 10.391 8.41309 10.3584L8.86133 9.88378ZM15.3428 9.99218C15.48 10.1364 15.6189 10.2847 15.7588 10.4365C15.6189 10.2847 15.48 10.1364 15.3428 9.99218ZM18.8701 9.38964C18.848 9.42679 18.8253 9.46378 18.8027 9.50097C18.8253 9.46378 18.848 9.42679 18.8701 9.38964ZM19.1123 8.96386C19.0695 9.0426 19.0248 9.12112 18.9795 9.20019C19.0248 9.12112 19.0695 9.0426 19.1123 8.96386ZM5.05762 9.0957C5.03285 9.05149 5.00737 9.00796 4.9834 8.96386C5.00736 9.00796 5.03285 9.05149 5.05762 9.0957ZM4.90332 8.81054C4.85841 8.72477 4.81405 8.63986 4.77246 8.55468C4.81404 8.63986 4.85841 8.72477 4.90332 8.81054ZM19.3232 8.55468C19.2817 8.63974 19.2382 8.7249 19.1934 8.81054C19.2382 8.7249 19.2817 8.63973 19.3232 8.55468ZM11.3359 7.50878C11.1035 7.71334 10.8771 7.91896 10.6572 8.12207L10.0195 8.72363C10.2237 8.52681 10.4363 8.32528 10.6562 8.12207L11.3359 7.50878ZM10.2178 5.51562C10.4024 5.63976 10.5868 5.76916 10.7705 5.90234C9.98695 6.56926 9.17132 7.31971 8.31641 8.17578L7.88477 8.61621C8.02578 8.47118 8.16815 8.32326 8.31543 8.17578C9.17051 7.31952 9.98681 6.56938 10.7705 5.90234C10.5869 5.7692 10.4023 5.63971 10.2178 5.51562ZM4.7041 8.40722C4.66152 8.31602 4.6194 8.22602 4.58105 8.13574C4.6194 8.22602 4.66152 8.31602 4.7041 8.40722ZM19.5156 8.13574C19.4772 8.22615 19.4342 8.31589 19.3916 8.40722C19.4342 8.31589 19.4772 8.22615 19.5156 8.13574ZM19.6719 7.73632C19.6404 7.8246 19.6044 7.91253 19.5684 8.00195C19.6044 7.91253 19.6404 7.8246 19.6719 7.73632ZM4.50098 7.93457C4.47864 7.87752 4.456 7.82122 4.43555 7.76464C4.456 7.82122 4.47864 7.87752 4.50098 7.93457ZM19.8047 7.31835C19.7811 7.40454 19.7522 7.49055 19.7236 7.57812C19.7522 7.49055 19.7811 7.40454 19.8047 7.31835ZM4.36523 7.55371C4.3397 7.47439 4.31341 7.39652 4.29199 7.31835C4.31341 7.39653 4.3397 7.47439 4.36523 7.55371ZM19.8496 7.13671C19.8372 7.18979 19.824 7.2432 19.8096 7.29687C19.824 7.2432 19.8372 7.18979 19.8496 7.13671ZM4.27539 7.25585C4.26653 7.22187 4.25804 7.18803 4.25 7.15429C4.25804 7.18803 4.26654 7.22187 4.27539 7.25585ZM4.23438 7.08593C4.22623 7.04935 4.21905 7.01284 4.21191 6.97656C4.21905 7.01284 4.22623 7.04935 4.23438 7.08593ZM19.916 6.79199C19.9107 6.82759 19.9058 6.86348 19.8994 6.89941C19.9058 6.86348 19.9107 6.82759 19.916 6.79199ZM4.19629 6.89453C4.18896 6.85298 4.1827 6.81161 4.17676 6.7705C4.1827 6.81161 4.18896 6.85298 4.19629 6.89453ZM4.16602 6.69726C4.16374 6.67901 4.16215 6.66074 4.16016 6.64257C4.16215 6.66074 4.16374 6.67901 4.16602 6.69726ZM19.9541 6.39453C19.9525 6.43847 19.9517 6.48279 19.9482 6.52734C19.9517 6.48279 19.9525 6.43847 19.9541 6.39453ZM4.14746 6.50488C4.14544 6.47612 4.14481 6.44745 4.14355 6.41894C4.14481 6.44745 4.14545 6.47612 4.14746 6.50488ZM4.14062 6.34082C4.14009 6.31301 4.1404 6.28536 4.14062 6.25781C4.1404 6.28536 4.14009 6.31301 4.14062 6.34082ZM19.9463 6.0332C19.9503 6.07902 19.9523 6.12525 19.9541 6.17187C19.9523 6.12525 19.9503 6.07902 19.9463 6.0332ZM4.1416 6.16894C4.14317 6.12858 4.14613 6.08858 4.14941 6.04882C4.14613 6.08858 4.14317 6.12858 4.1416 6.16894ZM19.9277 5.88574C19.9336 5.92551 19.9394 5.96543 19.9434 6.00585C19.9394 5.96543 19.9336 5.92551 19.9277 5.88574ZM4.1543 5.99414C4.15749 5.96331 4.16175 5.93278 4.16602 5.90234C4.16175 5.93278 4.15749 5.96331 4.1543 5.99414ZM4.17773 5.82031C4.1833 5.78844 4.19046 5.757 4.19727 5.72558C4.19045 5.757 4.1833 5.78844 4.17773 5.82031ZM4.20996 5.66308C4.22091 5.61853 4.23447 5.57483 4.24805 5.53125C4.23447 5.57483 4.22091 5.61853 4.20996 5.66308ZM19.8555 5.55371C19.8662 5.58959 19.8768 5.62557 19.8857 5.6621C19.8768 5.62557 19.8662 5.58959 19.8555 5.55371ZM4.25586 5.50683C4.26533 5.47762 4.27544 5.44868 4.28613 5.41992C4.27544 5.44868 4.26534 5.47762 4.25586 5.50683ZM9.68457 5.17285C9.78166 5.23264 9.87738 5.2964 9.97461 5.35937C9.87738 5.2964 9.78166 5.23264 9.68457 5.17285ZM19.7461 5.26562C19.7592 5.29383 19.7724 5.32189 19.7842 5.35058C19.7724 5.32189 19.7592 5.29383 19.7461 5.26562ZM4.46289 5.05273C4.42443 5.11561 4.39066 5.18046 4.35938 5.24609C4.39066 5.18045 4.42444 5.11561 4.46289 5.05273ZM14.1553 5.33886C14.2452 5.28094 14.3331 5.2212 14.4229 5.16601C14.3331 5.2212 14.2452 5.28094 14.1553 5.33886ZM19.4307 4.77343C19.4735 4.82364 19.5135 4.87532 19.5508 4.92773C19.5471 4.92259 19.5438 4.91723 19.54 4.9121L19.4307 4.77343ZM14.8721 4.90234C14.9104 4.88084 14.9481 4.85878 14.9863 4.83789C14.9481 4.85878 14.9104 4.88084 14.8721 4.90234ZM9.11621 4.84179C9.15174 4.86124 9.18706 4.88139 9.22266 4.90136C9.18706 4.88139 9.15174 4.86124 9.11621 4.84179ZM15.0771 4.78906C15.1328 4.75926 15.1887 4.73057 15.2441 4.70214C15.1887 4.73057 15.1328 4.75926 15.0771 4.78906ZM8.85059 4.70117C8.89224 4.7225 8.93381 4.74449 8.97559 4.7666C8.93381 4.74449 8.89224 4.7225 8.85059 4.70117ZM19.1621 4.50585L19.3086 4.64062C19.2552 4.58722 19.1989 4.53678 19.1406 4.48925C19.1476 4.49497 19.1552 4.50005 19.1621 4.50585ZM4.79004 4.64062C4.84079 4.58974 4.89401 4.54165 4.94922 4.49609C4.89401 4.54164 4.84079 4.58975 4.79004 4.64062ZM8.60352 4.5791C8.64026 4.59662 8.67699 4.61463 8.71387 4.63281C8.67699 4.61463 8.64026 4.59662 8.60352 4.5791ZM15.3975 4.62597C15.4282 4.61089 15.4586 4.59567 15.4893 4.58105C15.4586 4.59567 15.4282 4.6109 15.3975 4.62597ZM15.6396 4.51074C15.6908 4.48745 15.7421 4.46528 15.793 4.44335C15.7421 4.46528 15.6908 4.48745 15.6396 4.51074ZM8.30371 4.44335C8.35105 4.46374 8.3987 4.48428 8.44629 4.50585C8.3987 4.48429 8.35105 4.46374 8.30371 4.44335ZM4.99512 4.46093C5.03696 4.42819 5.07901 4.39584 5.12305 4.36621C5.07901 4.39583 5.03696 4.4282 4.99512 4.46093ZM10.2441 3.65625C10.6456 3.89221 11.0601 4.15966 11.4863 4.46093C11.0601 4.15966 10.6456 3.89221 10.2441 3.65625ZM18.9727 4.36621C19.0172 4.39609 19.0602 4.42788 19.1025 4.46093C19.0602 4.4279 19.0172 4.39607 18.9727 4.36621ZM15.9102 4.39355C15.95 4.37716 15.9897 4.3612 16.0293 4.3457C15.9897 4.3612 15.95 4.37716 15.9102 4.39355ZM8.0791 4.35058C8.11346 4.36409 8.1481 4.37742 8.18262 4.3916C8.1481 4.37742 8.11346 4.36409 8.0791 4.35058ZM18.7812 4.25097C18.8289 4.27644 18.8752 4.30415 18.9209 4.333C18.8752 4.30417 18.8289 4.27642 18.7812 4.25097ZM5.18164 4.3291C5.22279 4.30324 5.26483 4.27897 5.30762 4.25585C5.26483 4.27896 5.22279 4.30325 5.18164 4.3291ZM16.1836 4.2871C16.2155 4.27549 16.2476 4.26489 16.2793 4.2539C16.2476 4.26489 16.2155 4.27549 16.1836 4.2871ZM7.83594 4.25976C7.85773 4.26738 7.8795 4.27529 7.90137 4.2832C7.8795 4.27529 7.85773 4.26738 7.83594 4.25976ZM18.5557 4.1455L18.6602 4.18945C18.6857 4.20112 18.7103 4.21492 18.7354 4.22753L18.5557 4.1455ZM6.20215 3.99414C5.97609 4.01034 5.7535 4.06144 5.54199 4.1455C5.48278 4.16905 5.42494 4.19616 5.36816 4.2246C5.39123 4.21305 5.41402 4.20021 5.4375 4.18945L5.54102 4.14453C5.68187 4.08852 5.82802 4.04745 5.97656 4.02148L6.20215 3.99414ZM7.56152 4.17187C7.59198 4.18088 7.62269 4.18958 7.65332 4.19921C7.62269 4.18958 7.59198 4.18088 7.56152 4.17187ZM16.4424 4.19921C16.4759 4.18867 16.5097 4.17973 16.543 4.16992C16.5097 4.17972 16.4759 4.18867 16.4424 4.19921ZM16.6895 4.12792C16.7378 4.11518 16.7861 4.10383 16.834 4.09277C16.7861 4.10383 16.7378 4.11518 16.6895 4.12792ZM7.2793 4.09667C7.31974 4.10617 7.36058 4.11529 7.40137 4.12597C7.36058 4.11529 7.31974 4.10617 7.2793 4.09667ZM6.67188 3.99902C6.83196 4.01128 6.99597 4.03466 7.16309 4.06933C7.08163 4.05244 7.00076 4.03903 6.9209 4.02734L6.67188 3.99902ZM17.4258 3.99902C17.2654 4.01129 17.101 4.03457 16.9336 4.06933C17.0207 4.05124 17.1071 4.03654 17.1924 4.02441L17.4258 3.99902ZM13.5654 11.373C13.5759 11.4021 13.5869 11.4311 13.5957 11.4609C13.5869 11.4311 13.5759 11.4021 13.5654 11.373ZM19.8887 6.95507C19.8785 7.00811 19.8678 7.06154 19.8555 7.11523C19.8678 7.06154 19.8785 7.00811 19.8887 6.95507ZM19.9443 6.56933C19.9397 6.6214 19.9328 6.67372 19.9258 6.72656C19.9328 6.67372 19.9397 6.6214 19.9443 6.56933ZM19.9561 6.22949C19.9569 6.27472 19.9573 6.32028 19.9561 6.36621C19.9573 6.32028 19.9569 6.27472 19.9561 6.22949ZM19.8936 5.69628C19.9044 5.74363 19.9139 5.79146 19.9219 5.83984C19.9138 5.79146 19.9044 5.74363 19.8936 5.69628ZM4.31445 5.3457C4.32839 5.31209 4.34367 5.27903 4.35938 5.24609C4.34367 5.27903 4.32839 5.31209 4.31445 5.3457ZM4.46289 5.05273C4.4889 5.01021 4.5175 4.96894 4.54688 4.92773C4.51749 4.96894 4.4889 5.01021 4.46289 5.05273ZM9.88379 3.45019C9.9586 3.49124 10.0337 3.53374 10.1094 3.57714C10.0337 3.53374 9.95859 3.49124 9.88379 3.45019Z" fill="#366D84"/>
</svg>
