<svg width="24" height="28" viewBox="0 0 24 28" fill="none" xmlns="http://www.w3.org/2000/svg">
<path d="M19.7979 13.3281C20.2046 13.3281 20.5342 13.624 20.5342 13.9883C20.5339 17.987 17.1048 21.2662 12.7363 21.6006V24.1455C12.7363 24.5098 12.4067 24.8047 12 24.8047C11.5933 24.8047 11.2637 24.5098 11.2637 24.1455V21.6006C6.89518 21.2662 3.46608 17.987 3.46582 13.9883C3.46582 13.624 3.7954 13.3281 4.20215 13.3281C4.6088 13.3282 4.93848 13.6241 4.93848 13.9883C4.93875 17.4807 8.10017 20.3125 12 20.3125C15.8998 20.3125 19.0612 17.4807 19.0615 13.9883C19.0615 13.6241 19.3912 13.3282 19.7979 13.3281ZM12.2559 3.20117C14.8776 3.32044 16.9619 5.2621 16.9619 7.63965V13.9883L16.9561 14.2168C16.823 16.5648 14.6548 18.4325 12 18.4326L11.7451 18.4258C9.20778 18.3106 7.17269 16.4891 7.04395 14.2168L7.03711 13.9883V7.63965C7.03711 5.18531 9.25944 3.19542 12 3.19531L12.2559 3.20117ZM12 4.51465C10.0729 4.51475 8.51074 5.91384 8.51074 7.63965V13.9883C8.51097 15.7139 10.0731 17.1132 12 17.1133C13.9269 17.1132 15.489 15.7139 15.4893 13.9883V7.63965C15.4893 5.91384 13.9271 4.51476 12 4.51465Z" fill="#366D84"/>
</svg>
