<svg width="12" height="20" viewBox="0 0 12 20" fill="none" xmlns="http://www.w3.org/2000/svg">
<path d="M6.47949 19.2041C6.33382 19.2141 6.18646 19.2207 6.03809 19.2207C5.91608 19.2207 5.79501 19.2158 5.6748 19.209C5.69419 19.2101 5.71396 19.2129 5.7334 19.2139L6.03809 19.2207C6.18646 19.2207 6.33382 19.2141 6.47949 19.2041ZM4.93066 19.123C5.0961 19.1521 5.26367 19.1764 5.43359 19.1924C5.26366 19.1764 5.0961 19.1521 4.93066 19.123ZM4.33887 0.526367C6.52195 0.526385 8.30756 2.17439 8.30762 4.2207V13.6943C8.30762 14.8644 7.278 15.8096 6.03809 15.8096C4.79834 15.8094 3.76855 14.8643 3.76855 13.6943V5.01074C3.76855 4.70914 4.03373 4.47368 4.33887 4.47363C4.64403 4.47365 4.90918 4.70911 4.90918 5.01074V13.6943C4.90918 14.261 5.4087 14.7371 6.03809 14.7373C6.66764 14.7373 7.16797 14.2611 7.16797 13.6943V4.2207C7.16791 2.78556 5.9031 1.59963 4.33887 1.59961C2.77466 1.59966 1.50983 2.78558 1.50977 4.2207V13.6943C1.50977 16.0057 3.53073 17.8944 6.03809 17.8945C8.5456 17.8945 10.5674 16.0059 10.5674 13.6943V3.43164C10.5674 3.13 10.8325 2.89453 11.1377 2.89453C11.4426 2.8949 11.707 3.13024 11.707 3.43164V13.6943C11.707 16.6091 9.15596 18.9678 6.03809 18.9678C2.92038 18.9676 0.370117 16.609 0.370117 13.6943V4.2207C0.370177 2.17441 2.15581 0.526416 4.33887 0.526367ZM5.39746 17.5967C5.60643 17.6261 5.82032 17.6416 6.03809 17.6416L5.81934 17.6367C5.67672 17.63 5.53604 17.6162 5.39746 17.5967ZM6.55957 17.6104C6.48042 17.6194 6.40074 17.6269 6.32031 17.6318C6.40074 17.6269 6.48042 17.6194 6.55957 17.6104ZM5.3584 17.5908C5.30171 17.5823 5.24537 17.5731 5.18945 17.5625C5.24537 17.573 5.30171 17.5823 5.3584 17.5908ZM6.87988 17.5635C6.86044 17.5671 6.84083 17.5699 6.82129 17.5732C6.84083 17.5699 6.86044 17.5671 6.87988 17.5635ZM5.1377 17.5518C5.09381 17.5429 5.05021 17.5335 5.00684 17.5234C5.05021 17.5335 5.09381 17.5429 5.1377 17.5518ZM7.09277 17.5186C7.04532 17.5298 6.9973 17.5391 6.94922 17.5488C6.9973 17.5391 7.04532 17.5298 7.09277 17.5186ZM4.74219 17.4531C4.69667 17.4396 4.65128 17.4261 4.60645 17.4111C4.65128 17.4261 4.69667 17.4396 4.74219 17.4531ZM7.28125 17.4688C7.23918 17.4807 7.19691 17.4922 7.1543 17.5029C7.19691 17.4922 7.23918 17.4807 7.28125 17.4688ZM7.48145 17.4072C7.43956 17.4213 7.39698 17.4334 7.35449 17.4463C7.39698 17.4334 7.43956 17.4213 7.48145 17.4072ZM4.52832 17.3838C4.49095 17.3706 4.45385 17.3569 4.41699 17.3428C4.45385 17.3569 4.49095 17.3706 4.52832 17.3838ZM7.66797 17.3389C7.63525 17.3515 7.60246 17.3641 7.56934 17.376C7.60246 17.3641 7.63525 17.3515 7.66797 17.3389ZM4.18066 17.2441C4.13026 17.2213 4.08052 17.1975 4.03125 17.1729C4.08051 17.1975 4.13026 17.2213 4.18066 17.2441ZM7.8623 17.2588C7.82262 17.2764 7.78254 17.2931 7.74219 17.3096C7.78254 17.2931 7.82262 17.2764 7.8623 17.2588ZM8.04102 17.1748C8.00015 17.1952 7.95864 17.2143 7.91699 17.2334C7.95864 17.2143 8.00015 17.1952 8.04102 17.1748ZM3.99805 17.1562C3.95527 17.1344 3.91295 17.112 3.87109 17.0889C3.91296 17.112 3.95527 17.1344 3.99805 17.1562ZM8.2041 17.0898C8.18308 17.1014 8.16188 17.1127 8.14062 17.124C8.16188 17.1127 8.18308 17.1014 8.2041 17.0898ZM3.8125 17.0566C3.7799 17.038 3.74783 17.0185 3.71582 16.999C3.74783 17.0185 3.7799 17.038 3.8125 17.0566ZM8.38086 16.9863C8.35417 17.0028 8.32692 17.0183 8.2998 17.0342C8.32692 17.0183 8.35416 17.0028 8.38086 16.9863ZM3.63184 16.9473C3.60473 16.9299 3.5784 16.9115 3.55176 16.8936C3.5784 16.9115 3.60473 16.9299 3.63184 16.9473ZM8.54395 16.8799C8.51605 16.8989 8.48837 16.9182 8.45996 16.9365C8.48837 16.9182 8.51605 16.8989 8.54395 16.8799ZM3.48828 16.8506C3.45631 16.8282 3.42481 16.8054 3.39355 16.7822C3.42481 16.8054 3.45631 16.8282 3.48828 16.8506ZM8.69727 16.7705C8.6762 16.7862 8.65518 16.802 8.63379 16.8174C8.65518 16.802 8.6762 16.7862 8.69727 16.7705ZM8.86035 16.6436C8.83572 16.6639 8.81029 16.6833 8.78516 16.7031C8.81029 16.6833 8.83572 16.6639 8.86035 16.6436ZM3.18262 16.6162C3.19357 16.6255 3.20477 16.6344 3.21582 16.6436C3.15379 16.5923 3.09288 16.5399 3.03418 16.4854L3.18262 16.6162ZM9.02246 16.502C8.98919 16.5325 8.95524 16.5623 8.9209 16.5918C8.95524 16.5623 8.98919 16.5325 9.02246 16.502ZM9.14941 16.3799C9.12028 16.409 9.0906 16.4375 9.06055 16.4658C9.0906 16.4375 9.12028 16.409 9.14941 16.3799ZM9.27539 16.248C9.25503 16.2703 9.23475 16.2926 9.21387 16.3145C9.23475 16.2926 9.25503 16.2703 9.27539 16.248ZM2.64941 16.0742C2.70878 16.1471 2.77139 16.2174 2.83594 16.2861C2.77139 16.2174 2.70878 16.1471 2.64941 16.0742ZM9.41504 16.0879C9.39069 16.1175 9.36604 16.1468 9.34082 16.1758C9.36604 16.1468 9.39069 16.1175 9.41504 16.0879ZM9.53125 15.9404C9.50808 15.9715 9.48406 16.0018 9.45996 16.0322C9.48406 16.0018 9.50808 15.9715 9.53125 15.9404ZM2.55762 15.9561C2.55064 15.9468 2.54303 15.938 2.53613 15.9287C2.54303 15.938 2.55064 15.9468 2.55762 15.9561ZM9.65332 15.7676C9.6306 15.8017 9.60778 15.8357 9.58398 15.8691C9.60778 15.8357 9.6306 15.8017 9.65332 15.7676ZM2.45215 15.8096C2.43969 15.7914 2.42718 15.7733 2.41504 15.7549C2.42718 15.7733 2.43969 15.7914 2.45215 15.8096ZM9.74707 15.6191C9.72767 15.6513 9.70784 15.6832 9.6875 15.7148C9.70784 15.6832 9.72767 15.6513 9.74707 15.6191ZM2.37305 15.6895C2.35281 15.6574 2.33276 15.6253 2.31348 15.5928C2.33276 15.6253 2.35281 15.6574 2.37305 15.6895ZM9.84961 15.4375C9.82876 15.4767 9.80833 15.5162 9.78613 15.5547C9.80833 15.5162 9.82876 15.4767 9.84961 15.4375ZM2.28125 15.5361C2.2625 15.5032 2.24433 15.47 2.22656 15.4365C2.24433 15.47 2.2625 15.5032 2.28125 15.5361ZM9.94434 15.248C9.92168 15.2971 9.89776 15.3455 9.87305 15.3936C9.89776 15.3455 9.92168 15.2971 9.94434 15.248ZM2.19043 15.3672C2.17055 15.3278 2.15132 15.2881 2.13281 15.248C2.15132 15.2881 2.17055 15.3278 2.19043 15.3672ZM2.11035 15.1992C2.09412 15.1627 2.07855 15.1259 2.06348 15.0889C2.07855 15.1259 2.09412 15.1627 2.11035 15.1992ZM10.0068 15.1025C9.99355 15.1348 9.98096 15.1674 9.9668 15.1992C9.98097 15.1674 9.99355 15.1348 10.0068 15.1025ZM0.262695 15.0176C0.273227 15.0573 0.285424 15.0964 0.296875 15.1357C0.285425 15.0964 0.273226 15.0573 0.262695 15.0176ZM10.0703 14.9375C10.0581 14.9718 10.0464 15.0062 10.0332 15.04C10.0464 15.0062 10.0581 14.9718 10.0703 14.9375ZM2.0332 15.0127C2.02406 14.9887 2.01549 14.9646 2.00684 14.9404C2.01549 14.9646 2.02406 14.9887 2.0332 15.0127ZM1.96973 14.8291C1.95749 14.7912 1.9456 14.7532 1.93457 14.7148C1.9456 14.7532 1.95749 14.7912 1.96973 14.8291ZM1.91699 14.6523C1.90656 14.6135 1.89688 14.5744 1.8877 14.5352C1.89688 14.5744 1.90656 14.6135 1.91699 14.6523ZM5.94727 14.4785C5.97715 14.4815 6.00739 14.4844 6.03809 14.4844L5.95117 14.4795C5.94985 14.4794 5.94859 14.4786 5.94727 14.4785ZM10.2158 14.4111C10.2113 14.4339 10.208 14.4569 10.2031 14.4795C10.208 14.4569 10.2113 14.4339 10.2158 14.4111ZM6.20312 14.4678C6.1976 14.4688 6.19208 14.4698 6.18652 14.4707C6.19208 14.4698 6.1976 14.4688 6.20312 14.4678ZM1.87109 14.4658C1.86282 14.427 1.85665 14.3878 1.84961 14.3486C1.85665 14.3878 1.86282 14.427 1.87109 14.4658ZM5.82227 14.4561C5.81419 14.4541 5.80583 14.4534 5.79785 14.4512C5.80583 14.4534 5.81419 14.4541 5.82227 14.4561ZM6.35352 14.4258C6.34898 14.4275 6.34442 14.429 6.33984 14.4307C6.34442 14.429 6.34898 14.4275 6.35352 14.4258ZM5.67285 14.4053C5.67125 14.4046 5.66956 14.404 5.66797 14.4033C5.66956 14.404 5.67125 14.4046 5.67285 14.4053ZM6.49512 14.3574C6.4886 14.3613 6.48222 14.3654 6.47559 14.3691C6.48222 14.3654 6.4886 14.3613 6.49512 14.3574ZM6.625 14.2617C6.60079 14.2833 6.57465 14.3024 6.54785 14.3213C6.57465 14.3024 6.60079 14.2833 6.625 14.2617ZM0.118164 14.2344C0.120287 14.2546 0.123618 14.2747 0.125977 14.2949C0.123618 14.2747 0.120287 14.2546 0.118164 14.2344ZM1.83789 14.2822C1.83189 14.2449 1.82616 14.2075 1.82129 14.1699C1.82616 14.2075 1.83189 14.2449 1.83789 14.2822ZM6.72266 14.1582C6.71648 14.166 6.71058 14.174 6.7041 14.1816C6.71058 14.174 6.71648 14.166 6.72266 14.1582ZM5.35352 14.1592C5.34964 14.1543 5.34556 14.1495 5.3418 14.1445C5.34556 14.1495 5.34964 14.1543 5.35352 14.1592ZM0.0976562 13.9697C0.099441 14.0034 0.103036 14.0368 0.105469 14.0703C0.103247 14.0397 0.0993375 14.0092 0.0976562 13.9785V13.9697ZM6.79688 14.0459C6.79514 14.0491 6.79377 14.0525 6.79199 14.0557C6.79377 14.0525 6.79514 14.0491 6.79688 14.0459ZM5.2793 14.0469C5.27458 14.0382 5.27 14.0294 5.26562 14.0205C5.27 14.0294 5.27458 14.0382 5.2793 14.0469ZM5.22461 13.9189C5.22171 13.9099 5.21936 13.9008 5.2168 13.8916C5.21936 13.9008 5.22171 13.9099 5.22461 13.9189ZM3.50684 4.85156C3.49545 4.90288 3.48926 4.95641 3.48926 5.01074C3.48926 4.98356 3.49024 4.95618 3.49316 4.92969L3.50684 4.85156ZM4.42578 4.22461C4.47543 4.22935 4.52351 4.23955 4.57031 4.25195C4.52355 4.23957 4.47538 4.23032 4.42578 4.22559L4.33887 4.2207L4.42578 4.22461ZM6.875 3.98145C6.87656 3.99569 6.87665 4.0101 6.87793 4.02441C6.87665 4.01009 6.87656 3.99569 6.875 3.98145ZM6.69434 3.31934C6.70464 3.34241 6.71312 3.36622 6.72266 3.38965C6.71312 3.36622 6.70465 3.34241 6.69434 3.31934ZM6.58496 3.10547C6.60395 3.13825 6.62035 3.17238 6.6377 3.20605C6.62034 3.17238 6.60396 3.13825 6.58496 3.10547ZM6.46094 2.91406C6.49019 2.95486 6.51642 2.99754 6.54297 3.04004C6.51641 2.99754 6.4902 2.95486 6.46094 2.91406ZM10.5371 2.87402C10.5031 2.90561 10.4723 2.94005 10.4443 2.97656C10.4564 2.96075 10.4682 2.94461 10.4814 2.92969L10.5371 2.87402ZM6.31348 2.72852C6.34794 2.76777 6.37937 2.80932 6.41113 2.85059C6.37937 2.80932 6.34795 2.76777 6.31348 2.72852ZM10.9668 2.6582C10.8841 2.67401 10.8056 2.70081 10.7334 2.7373L10.6631 2.77734C10.7762 2.70622 10.9083 2.65899 11.0508 2.64551L10.9668 2.6582ZM11.1406 2.6416C11.2195 2.64191 11.2956 2.65364 11.3682 2.67285C11.3214 2.66048 11.2732 2.65121 11.2236 2.64648L11.1406 2.6416ZM6.16504 2.57422C6.19338 2.60134 6.22013 2.62986 6.24707 2.6582C6.22013 2.62986 6.19338 2.60134 6.16504 2.57422ZM5.98633 2.41895C6.01267 2.43979 6.03806 2.4616 6.06348 2.4834C6.03806 2.4616 6.01268 2.43978 5.98633 2.41895ZM5.78613 2.27539C5.82221 2.29867 5.8569 2.3237 5.8916 2.34863C5.85689 2.3237 5.82221 2.29867 5.78613 2.27539ZM5.58008 2.15527C5.6247 2.17858 5.66801 2.20381 5.71094 2.22949C5.668 2.20382 5.6247 2.17858 5.58008 2.15527ZM5.37207 2.05859C5.41138 2.07493 5.45004 2.09224 5.48828 2.11035C5.45004 2.09225 5.41138 2.07493 5.37207 2.05859ZM5.14551 1.97656C5.1831 1.98831 5.22004 2.00133 5.25684 2.01465C5.22004 2.00133 5.1831 1.98831 5.14551 1.97656ZM4.91016 1.91504C4.9473 1.92302 4.984 1.93192 5.02051 1.94141C4.98399 1.93192 4.9473 1.92302 4.91016 1.91504ZM4.66699 1.875C4.70305 1.87936 4.73884 1.88389 4.77441 1.88965C4.73884 1.88389 4.70305 1.87936 4.66699 1.875ZM4.46973 1.85547C4.4897 1.85642 4.50945 1.85995 4.5293 1.86133L4.33887 1.85254L4.46973 1.85547ZM4.92676 17.5039C4.87659 17.4913 4.82676 17.4781 4.77734 17.4639C4.82676 17.4781 4.87659 17.4913 4.92676 17.5039ZM4.35547 17.3184C4.30415 17.2977 4.25337 17.2763 4.20312 17.2539C4.25337 17.2763 4.30415 17.2977 4.35547 17.3184ZM10.1895 14.5332C10.1783 14.5811 10.1663 14.6286 10.1533 14.6758C10.1663 14.6286 10.1783 14.5811 10.1895 14.5332ZM10.1211 14.7832C10.1133 14.8083 10.1059 14.8335 10.0977 14.8584C10.1059 14.8335 10.1133 14.8083 10.1211 14.7832ZM10.2549 14.1738C10.2498 14.2127 10.2446 14.2515 10.2383 14.29C10.2446 14.2515 10.2498 14.2127 10.2549 14.1738ZM6.83691 3.75488C6.84961 3.81339 6.85927 3.87267 6.86719 3.93262C6.85926 3.87266 6.84962 3.8134 6.83691 3.75488Z" fill="#366D84"/>
</svg>
