<svg width="21" height="20" viewBox="0 0 21 20" fill="none" xmlns="http://www.w3.org/2000/svg">
<path d="M16.3213 19.0773C16.218 19.0852 16.1142 19.0904 16.01 19.0908L16.1946 19.0859C16.2369 19.0839 16.2791 19.0806 16.3213 19.0773Z" fill="#366D84"/>
<path d="M2.64551 8.25846C2.63442 8.26827 2.62349 8.27827 2.61255 8.28829L2.51807 8.37848C2.55927 8.33686 2.60192 8.29698 2.64551 8.25846Z" fill="#366D84"/>
<path d="M16.4194 17.289L16.2451 17.3117C16.318 17.3047 16.3902 17.2935 16.4619 17.2805C16.4477 17.2831 16.4337 17.2866 16.4194 17.289Z" fill="#366D84"/>
<path d="M19.0972 9.3728C19.0984 9.37621 19.1004 9.37934 19.1016 9.38275L19.1389 9.50135C19.1262 9.45806 19.112 9.41529 19.0972 9.3728Z" fill="#366D84"/>
<path d="M18.4966 8.39766C18.5046 8.40595 18.5128 8.41412 18.5208 8.42252L18.6035 8.51414C18.5691 8.47411 18.5332 8.43543 18.4966 8.39766Z" fill="#366D84"/>
<path d="M17.8374 7.90334C17.9141 7.94383 17.9886 7.98836 18.0608 8.03616C18.0276 8.01415 17.9939 7.99271 17.9597 7.97223L17.8374 7.90334Z" fill="#366D84"/>
<path d="M17.5671 7.77976C17.5774 7.78376 17.5877 7.78771 17.5979 7.79184L17.7107 7.84084C17.6634 7.81906 17.6155 7.79862 17.5671 7.77976Z" fill="#366D84"/>
<path d="M10.1982 2.93104C10.1741 2.95203 10.1513 2.97448 10.1294 2.9978C10.1323 2.99471 10.1352 2.99163 10.1382 2.98857L10.1982 2.93104Z" fill="#366D84"/>
<path d="M10.5879 2.72934C10.5551 2.73738 10.5229 2.74761 10.4912 2.75917C10.4969 2.75711 10.5024 2.75472 10.5081 2.75277L10.5879 2.72934Z" fill="#366D84"/>
<path fill-rule="evenodd" clip-rule="evenodd" d="M9.91846 1.45519C10.4199 1.24024 10.9804 1.21406 11.4983 1.38204C12.0166 1.55016 12.4617 1.90267 12.7493 2.37848C13.001 2.79509 13.1161 3.28091 13.0803 3.76627L13.0562 3.97365L12.7617 5.77763L12.6936 6.19809H16.6223L16.8354 6.20377C17.3322 6.2306 17.8208 6.35154 18.2754 6.56101C18.7949 6.80041 19.2588 7.15031 19.6348 7.588L19.6355 7.58871C20.013 8.02613 20.2937 8.54169 20.458 9.10008C20.6223 9.6583 20.6661 10.246 20.5862 10.8231L19.9695 15.2407C19.8296 16.2106 19.3499 17.0949 18.6218 17.7336C17.8941 18.3719 16.9663 18.7232 16.0078 18.7272H4.37476C3.31947 18.7259 2.30456 18.3019 1.55347 17.5433C0.801893 16.784 0.376308 15.7516 0.375 14.6718V10.2535C0.376368 9.17373 0.801947 8.1412 1.55347 7.38204C2.25751 6.67094 3.1934 6.25425 4.177 6.20377L4.37476 6.19809H6.98438L7.08545 5.9907L8.7605 2.56314L8.85938 2.38062C9.10867 1.96699 9.47934 1.64351 9.91846 1.45519ZM4.37402 7.23857C3.57351 7.23862 2.80898 7.56017 2.2478 8.12706C1.68716 8.69348 1.37476 9.45864 1.37476 10.2535V14.6718C1.37476 15.4667 1.68708 16.2325 2.2478 16.7989C2.80897 17.3658 3.57356 17.6867 4.37402 17.6867H6.49878V7.23857H4.37402ZM10.6501 2.34866C10.4417 2.37398 10.2431 2.44893 10.0708 2.56598C9.89867 2.68299 9.75745 2.83872 9.65845 3.01911L9.65479 3.02621L9.65112 3.03402L7.73657 6.94951C7.70671 7.00634 7.66819 7.05693 7.62158 7.09794L7.49854 7.2059V17.6867H16.0115C16.7367 17.6828 17.4342 17.4163 17.9773 16.9389C18.52 16.4616 18.8728 15.8056 18.9749 15.0923L19.593 10.6725L19.6106 10.5127C19.6427 10.1393 19.6056 9.76254 19.5 9.40192C19.3793 8.98977 19.1719 8.60729 18.8914 8.28118C18.6109 7.9552 18.2633 7.693 17.8718 7.51272C17.4802 7.33242 17.0539 7.23856 16.6223 7.23857H12.1018C12.0319 7.23856 11.9621 7.2233 11.8975 7.19312C11.8327 7.16289 11.7741 7.11801 11.7261 7.06101C11.6781 7.00403 11.6419 6.93634 11.6213 6.86215C11.6009 6.78823 11.5969 6.71022 11.6089 6.63417L12.0703 3.80817C12.1011 3.62625 12.0914 3.4394 12.0425 3.2613C11.9936 3.08325 11.9061 2.91735 11.7854 2.7755L11.7766 2.76556L11.666 2.6576C11.5487 2.55634 11.4133 2.47586 11.2661 2.4211C11.0699 2.34814 10.8586 2.32334 10.6501 2.34866Z" fill="#366D84"/>
<path d="M1.58276 18.071C1.6068 18.0911 1.63159 18.1103 1.65601 18.1299C1.63863 18.116 1.62045 18.1029 1.60327 18.0887L1.58276 18.071Z" fill="#366D84"/>
<path d="M20.9875 9.9282C20.9986 10.076 21.0016 10.2244 20.9978 10.3728C20.9996 10.3032 21 10.2336 20.9985 10.164L20.9875 9.9282Z" fill="#366D84"/>
<path d="M20.9282 9.46016L20.9641 9.69383C20.9458 9.55048 20.9194 9.40816 20.8872 9.26698C20.9019 9.3312 20.9164 9.39543 20.9282 9.46016Z" fill="#366D84"/>
<path d="M17.7766 5.99141C18.0018 6.05369 18.2222 6.13448 18.4358 6.23289C18.2934 6.16729 18.1478 6.10997 18 6.0603L17.7766 5.99141Z" fill="#366D84"/>
<path d="M13.4473 3.31598C13.462 3.45945 13.4644 3.60426 13.4561 3.74922C13.4598 3.68381 13.4621 3.61847 13.4612 3.5532L13.4473 3.31598Z" fill="#366D84"/>
<path d="M11.8403 1.12138C11.9543 1.1701 12.063 1.22875 12.1685 1.29255C12.1303 1.26948 12.0928 1.24551 12.0535 1.22437L11.8403 1.12138Z" fill="#366D84"/>
<path d="M10.9197 0.911865C11.0766 0.918715 11.2333 0.939289 11.3877 0.974365L11.6169 1.03758C11.4652 0.988356 11.3102 0.953401 11.1541 0.932462L10.9197 0.911865Z" fill="#366D84"/>
<path d="M18.5757 18.2421L18.5654 18.2499C18.5244 18.2799 18.4822 18.3081 18.4402 18.3366C18.4857 18.3057 18.5312 18.2748 18.5757 18.2421Z" fill="#366D84"/>
</svg>
