<svg width="17" height="20" viewBox="0 0 17 20" fill="none" xmlns="http://www.w3.org/2000/svg">
<path d="M10.999 0.667481C11.7868 0.667538 12.5425 0.998715 13.0996 1.58936C13.5725 2.09087 13.8664 2.74482 13.9453 3.4419C14.613 3.55433 15.1603 3.7757 15.5977 4.23975L15.6826 4.33447C16.0918 4.81544 16.2807 5.41457 16.373 6.14307C16.4697 6.90571 16.4688 7.88222 16.4688 9.1167V13.5337C16.4688 14.7682 16.4697 15.7447 16.373 16.5073C16.2745 17.2842 16.0659 17.9134 15.5977 18.4097L15.5986 18.4106C15.1307 18.9074 14.5364 19.1274 13.8037 19.2319C13.0845 19.3345 12.1633 19.3335 10.999 19.3335H8.5C7.33562 19.3335 6.41458 19.3345 5.69531 19.2319C4.96258 19.1274 4.3684 18.9074 3.90039 18.4106V18.4097C3.46337 17.9463 3.25455 17.3667 3.14844 16.6597C2.49095 16.5761 1.87439 16.2628 1.40137 15.7612C0.844324 15.1705 0.531302 14.3691 0.53125 13.5337V8.23389C0.53125 6.58286 0.53004 5.29369 0.657227 4.29053C0.786305 3.27302 1.056 2.47378 1.64648 1.84815C2.23667 1.2231 2.98913 0.93824 3.94824 0.80127C4.8942 0.666227 6.10979 0.667481 7.66699 0.667481H10.999ZM8.5 4.31787C7.30898 4.31787 6.46301 4.31915 5.82129 4.41065C5.19315 4.50023 4.83164 4.66829 4.56836 4.94775L4.47363 5.05811C4.2658 5.32748 4.13541 5.69352 4.06152 6.27588C3.97524 6.95634 3.97461 7.8538 3.97461 9.1167V13.5337C3.97461 14.7966 3.97524 15.6941 4.06152 16.3745C4.13542 16.9569 4.26582 17.3229 4.47363 17.5923L4.56836 17.7026L4.67188 17.8022C4.92597 18.0229 5.27158 18.1614 5.82129 18.2397C6.46301 18.3312 7.30899 18.3325 8.5 18.3325H10.999C12.19 18.3325 13.036 18.3312 13.6777 18.2397C14.3058 18.1502 14.6674 17.9821 14.9307 17.7026L15.0244 17.5923C15.2324 17.3229 15.3636 16.9572 15.4375 16.3745C15.5238 15.6941 15.5244 14.7966 15.5244 13.5337V9.1167C15.5244 7.8538 15.5238 6.95634 15.4375 6.27588C15.353 5.60999 15.1942 5.2269 14.9307 4.94775L14.8271 4.84717C14.5731 4.62657 14.2273 4.48903 13.6777 4.41065C13.036 4.31914 12.19 4.31787 10.999 4.31787H8.5ZM7.66699 1.66748C6.08323 1.66748 4.9426 1.66949 4.07422 1.79346C3.21966 1.9155 2.6993 2.14838 2.31348 2.55713C1.92788 2.96575 1.70872 3.51782 1.59375 4.42432C1.47699 5.34526 1.47559 6.55456 1.47559 8.23389V13.5337C1.47564 14.1036 1.68928 14.6502 2.06934 15.0532C2.3429 15.3433 2.687 15.5398 3.05859 15.6284C3.03231 15.0313 3.03027 14.3372 3.03027 13.5337V9.1167C3.03027 7.88221 3.02929 6.90571 3.12598 6.14307C3.22453 5.36596 3.4328 4.73607 3.90137 4.23975C4.36932 3.74324 4.96277 3.52293 5.69531 3.41846C6.41458 3.31589 7.33562 3.3169 8.5 3.3169H10.999C11.7569 3.31689 12.4115 3.31928 12.9746 3.34717C12.8911 2.95293 12.7053 2.58758 12.4316 2.29736C12.0516 1.89455 11.5364 1.66754 10.999 1.66748H7.66699Z" fill="#366D84"/>
</svg>
