<svg width="27" height="24" viewBox="0 0 27 24" fill="none" xmlns="http://www.w3.org/2000/svg">
<path d="M0 4C0 1.79086 1.79086 0 4 0L23 0C25.2091 0 27 1.79086 27 4L27 20C27 22.2091 25.2091 24 23 24L4 24C1.79086 24 0 22.2091 0 20L0 4Z" fill="#0C2B37"/>
<path d="M7.75434 2.92534C7.85764 2.91749 7.96141 2.91228 8.06561 2.91184L7.88104 2.91681C7.8387 2.91879 7.79651 2.92213 7.75434 2.92534Z" fill="#366D84"/>
<path d="M21.4301 13.7442C21.4412 13.7344 21.4521 13.7244 21.4631 13.7144L21.5576 13.6242C21.5163 13.6658 21.4737 13.7057 21.4301 13.7442Z" fill="#366D84"/>
<path d="M7.65619 4.71369L7.83051 4.69096C7.75762 4.69796 7.68543 4.70918 7.61371 4.72221C7.62792 4.71963 7.64193 4.71604 7.65619 4.71369Z" fill="#366D84"/>
<path d="M4.97846 12.6299C4.97727 12.6265 4.97523 12.6233 4.97406 12.6199L4.93671 12.5013C4.94939 12.5446 4.96364 12.5874 4.97846 12.6299Z" fill="#366D84"/>
<path d="M5.57904 13.605C5.571 13.5967 5.56281 13.5886 5.55487 13.5802L5.47211 13.4885C5.50654 13.5286 5.5424 13.5673 5.57904 13.605Z" fill="#366D84"/>
<path d="M6.23822 14.0993C6.16148 14.0589 6.08707 14.0143 6.01483 13.9665C6.04807 13.9885 6.08168 14.01 6.11591 14.0304L6.23822 14.0993Z" fill="#366D84"/>
<path d="M6.50848 14.2229C6.49823 14.2189 6.48793 14.215 6.47772 14.2108L6.36493 14.1618C6.41225 14.1836 6.4601 14.2041 6.50848 14.2229Z" fill="#366D84"/>
<path d="M13.8774 19.0716C13.9015 19.0507 13.9243 19.0282 13.9462 19.0049C13.9433 19.008 13.9404 19.0111 13.9374 19.0141L13.8774 19.0716Z" fill="#366D84"/>
<path d="M13.4877 19.2733C13.5205 19.2653 13.5527 19.2551 13.5844 19.2435C13.5788 19.2456 13.5733 19.248 13.5676 19.2499L13.4877 19.2733Z" fill="#366D84"/>
<path fill-rule="evenodd" clip-rule="evenodd" d="M14.1572 20.5475C13.6557 20.7624 13.0953 20.7886 12.5773 20.6206C12.059 20.4525 11.6139 20.1 11.3264 19.6242C11.0746 19.2076 10.9595 18.7218 10.9953 18.2364L11.0195 18.029L11.3139 16.2251L11.382 15.8046L7.45331 15.8046L7.24017 15.7989C6.74346 15.7721 6.25484 15.6511 5.80023 15.4417C5.28075 15.2023 4.81686 14.8524 4.44086 14.4147L4.44013 14.414C4.06259 13.9766 3.78196 13.461 3.61762 12.9026C3.45333 12.3444 3.40954 11.7567 3.48944 11.1796L4.10614 6.76198C4.24604 5.79205 4.72576 4.90783 5.4538 4.26909C6.1815 3.63074 7.10934 3.27944 8.06781 3.27548L19.7009 3.27548C20.7562 3.27676 21.7711 3.70075 22.5222 4.45943C23.2737 5.21865 23.6993 6.25104 23.7006 7.33088L23.7006 11.7492C23.6993 12.829 23.2737 13.8615 22.5222 14.6207C21.8181 15.3317 20.8822 15.7484 19.8986 15.7989L19.7009 15.8046L17.0912 15.8046L16.9902 16.012L15.3151 19.4395L15.2162 19.6221C14.967 20.0357 14.5963 20.3592 14.1572 20.5475ZM19.7016 14.7641C20.5021 14.7641 21.2666 14.4425 21.8278 13.8756C22.3885 13.3092 22.7009 12.544 22.7009 11.7492L22.7009 7.33088C22.7009 6.53597 22.3885 5.77018 21.8278 5.20375C21.2667 4.63693 20.5021 4.31601 19.7016 4.31596L17.5768 4.31596L17.5768 14.7641L19.7016 14.7641ZM13.4255 19.654C13.6339 19.6287 13.8325 19.5538 14.0048 19.4367C14.1769 19.3197 14.3182 19.164 14.4172 18.9836L14.4208 18.9765L14.4245 18.9687L16.3391 15.0532C16.3689 14.9963 16.4074 14.9458 16.454 14.9047L16.5771 14.7968L16.5771 4.31596L8.06415 4.31596C7.33892 4.31986 6.6414 4.58641 6.09833 5.06383C5.55559 5.54108 5.20287 6.19704 5.10077 6.91042L4.48261 11.3302L4.46503 11.49C4.43296 11.8634 4.47002 12.2401 4.57562 12.6008C4.69633 13.0129 4.90374 13.3954 5.18427 13.7215C5.46473 14.0475 5.81231 14.3097 6.2038 14.49C6.59542 14.6703 7.02169 14.7641 7.45331 14.7641L11.9738 14.7641C12.0438 14.7641 12.1135 14.7794 12.1782 14.8096C12.2429 14.8398 12.3015 14.8847 12.3495 14.9417C12.3975 14.9987 12.4338 15.0663 12.4543 15.1405C12.4747 15.2145 12.4788 15.2925 12.4667 15.3685L12.0053 18.1945C11.9746 18.3764 11.9842 18.5633 12.0331 18.7414C12.082 18.9194 12.1695 19.0853 12.2902 19.2272L12.299 19.2371L12.4096 19.3451C12.5269 19.4463 12.6623 19.5268 12.8095 19.5816C13.0057 19.6545 13.217 19.6793 13.4255 19.654Z" fill="#366D84"/>
<path d="M22.4929 3.93173C22.4688 3.91158 22.444 3.89238 22.4196 3.87278C22.437 3.88672 22.4552 3.89975 22.4724 3.91397L22.4929 3.93173Z" fill="#366D84"/>
<path d="M3.08807 12.0745C3.07707 11.9266 3.07405 11.7783 3.07782 11.6299C3.07605 11.6995 3.0756 11.7691 3.07709 11.8387L3.08807 12.0745Z" fill="#366D84"/>
<path d="M3.1474 12.5425L3.11151 12.3089C3.12982 12.4522 3.15621 12.5945 3.18842 12.7357C3.17376 12.6715 3.15918 12.6073 3.1474 12.5425Z" fill="#366D84"/>
<path d="M6.29901 16.0113C6.07381 15.949 5.85342 15.8682 5.63983 15.7698C5.7822 15.8354 5.92777 15.8927 6.07562 15.9424L6.29901 16.0113Z" fill="#366D84"/>
<path d="M10.6284 18.6867C10.6136 18.5432 10.6112 18.3984 10.6196 18.2535C10.6158 18.3189 10.6135 18.3842 10.6144 18.4495L10.6284 18.6867Z" fill="#366D84"/>
<path d="M12.2353 20.8813C12.1213 20.8326 12.0126 20.7739 11.9072 20.7101C11.9453 20.7332 11.9828 20.7572 12.0222 20.7783L12.2353 20.8813Z" fill="#366D84"/>
<path d="M13.1559 21.0908C12.999 21.084 12.8424 21.0634 12.6879 21.0283L12.4587 20.9651C12.6105 21.0143 12.7654 21.0493 12.9216 21.0702L13.1559 21.0908Z" fill="#366D84"/>
<path d="M5.49994 3.76056L5.51019 3.75275C5.55125 3.72279 5.59347 3.69456 5.63544 3.6661C5.58993 3.69696 5.54438 3.72793 5.49994 3.76056Z" fill="#366D84"/>
</svg>
