<svg width="28" height="25" viewBox="0 0 28 25" fill="none" xmlns="http://www.w3.org/2000/svg">
<path d="M6.33887 0.022459C6.47662 0.0116673 6.61497 0.00450901 6.75391 0.00390439L6.50781 0.0107403C6.45136 0.0134583 6.3951 0.0180512 6.33887 0.022459Z" fill="#366D84"/>
<path d="M24.5732 14.8984C24.588 14.8849 24.6026 14.8712 24.6172 14.8574L24.7432 14.7334C24.6882 14.7906 24.6314 14.8455 24.5732 14.8984Z" fill="#366D84"/>
<path d="M6.20801 2.48144L6.44043 2.45019C6.34325 2.45982 6.247 2.47524 6.15137 2.49316C6.17031 2.48961 6.189 2.48467 6.20801 2.48144Z" fill="#366D84"/>
<path d="M2.6377 13.3662C2.63611 13.3615 2.6334 13.3572 2.63184 13.3525L2.58203 13.1895C2.59894 13.249 2.61794 13.3078 2.6377 13.3662Z" fill="#366D84"/>
<path d="M3.43848 14.707C3.42775 14.6956 3.41684 14.6844 3.40625 14.6728L3.2959 14.5469C3.34181 14.6019 3.38962 14.6551 3.43848 14.707Z" fill="#366D84"/>
<path d="M4.31738 15.3867C4.21506 15.331 4.11584 15.2698 4.01953 15.2041C4.06385 15.2344 4.10866 15.2638 4.1543 15.292L4.31738 15.3867Z" fill="#366D84"/>
<path d="M4.67774 15.5566C4.66406 15.5511 4.65034 15.5457 4.63672 15.54L4.48633 15.4727C4.54943 15.5026 4.61322 15.5307 4.67774 15.5566Z" fill="#366D84"/>
<path d="M14.5029 22.2236C14.5351 22.1948 14.5655 22.1639 14.5947 22.1318C14.5908 22.1361 14.5869 22.1403 14.583 22.1445L14.5029 22.2236Z" fill="#366D84"/>
<path d="M13.9834 22.501C14.0272 22.4899 14.07 22.4758 14.1123 22.46C14.1048 22.4628 14.0974 22.4661 14.0898 22.4687L13.9834 22.501Z" fill="#366D84"/>
<path fill-rule="evenodd" clip-rule="evenodd" d="M14.876 24.2529C14.2074 24.5485 13.4601 24.5845 12.7695 24.3535C12.0784 24.1223 11.485 23.6376 11.1016 22.9834C10.7659 22.4106 10.6124 21.7426 10.6602 21.0752L10.6924 20.79L11.085 18.3096L11.1758 17.7314L5.9375 17.7314L5.65332 17.7236C4.99103 17.6867 4.33954 17.5204 3.7334 17.2324C3.04076 16.9033 2.42224 16.4221 1.9209 15.8203L1.91992 15.8193C1.41655 15.2179 1.04237 14.509 0.823243 13.7412C0.604201 12.9737 0.54581 12.1656 0.652345 11.3721L1.47461 5.29785C1.66114 3.96419 2.30077 2.74838 3.27149 1.87012C4.24175 0.99239 5.47887 0.509354 6.75684 0.503904L22.2676 0.503906C23.6746 0.505663 25.0278 1.08866 26.0293 2.13184C27.0314 3.17576 27.5988 4.5953 27.6006 6.08008L27.6006 12.1553C27.5988 13.6399 27.0313 15.0597 26.0293 16.1035C25.0906 17.0813 23.8427 17.6542 22.5313 17.7236L22.2676 17.7314L18.7881 17.7314L18.6533 18.0166L16.4199 22.7295L16.2881 22.9805C15.9557 23.5492 15.4615 23.994 14.876 24.2529ZM22.2686 16.3008C23.3359 16.3007 24.3553 15.8586 25.1035 15.0791C25.851 14.3003 26.2676 13.2482 26.2676 12.1553L26.2676 6.08008C26.2676 4.98709 25.8512 3.93412 25.1035 3.15527C24.3553 2.3759 23.3358 1.93464 22.2686 1.93457L19.4355 1.93457L19.4355 16.3008L22.2686 16.3008ZM13.9004 23.0244C14.1783 22.9896 14.4431 22.8865 14.6729 22.7256C14.9024 22.5647 15.0907 22.3506 15.2227 22.1025L15.2275 22.0928L15.2324 22.082L17.7852 16.6982C17.825 16.6201 17.8763 16.5505 17.9385 16.4941L18.1025 16.3457L18.1025 1.93457L6.75196 1.93457C5.78498 1.93992 4.85495 2.30644 4.13086 2.96289C3.40722 3.61911 2.93691 4.52105 2.80078 5.50195L1.97656 11.5791L1.95313 11.7988C1.91037 12.3123 1.95978 12.8303 2.10059 13.3262C2.26153 13.8929 2.53808 14.4188 2.91211 14.8672C3.28606 15.3154 3.74951 15.6759 4.27149 15.9238C4.79365 16.1717 5.36201 16.3008 5.9375 16.3008L11.9648 16.3008C12.0581 16.3008 12.1511 16.3218 12.2373 16.3633C12.3236 16.4048 12.4018 16.4665 12.4658 16.5449C12.5298 16.6233 12.5781 16.7163 12.6055 16.8184C12.6327 16.92 12.6381 17.0273 12.6221 17.1318L12.0068 21.0176C11.9658 21.2677 11.9787 21.5246 12.0439 21.7695C12.1091 22.0143 12.2258 22.2425 12.3867 22.4375L12.3984 22.4512L12.5459 22.5996C12.7023 22.7388 12.8828 22.8495 13.0791 22.9248C13.3407 23.0251 13.6225 23.0592 13.9004 23.0244Z" fill="#366D84"/>
<path d="M25.9902 1.40625C25.9582 1.37854 25.9251 1.35214 25.8926 1.3252C25.9157 1.34437 25.94 1.36228 25.9629 1.38184L25.9902 1.40625Z" fill="#366D84"/>
<path d="M0.117189 12.6025C0.102519 12.3993 0.098489 12.1952 0.103517 11.9912C0.101159 12.0869 0.100557 12.1827 0.10254 12.2783L0.117189 12.6025Z" fill="#366D84"/>
<path d="M0.19629 13.2461L0.148439 12.9248C0.172845 13.1219 0.208034 13.3176 0.250978 13.5117C0.231435 13.4234 0.212003 13.3351 0.19629 13.2461Z" fill="#366D84"/>
<path d="M4.39844 18.0156C4.09816 17.93 3.80431 17.8189 3.51953 17.6836C3.70936 17.7738 3.90346 17.8526 4.10059 17.9209L4.39844 18.0156Z" fill="#366D84"/>
<path d="M10.1709 21.6943C10.1512 21.4971 10.148 21.298 10.1592 21.0986C10.1541 21.1886 10.1511 21.2784 10.1523 21.3682L10.1709 21.6943Z" fill="#366D84"/>
<path d="M12.3135 24.7119C12.1615 24.6449 12.0166 24.5643 11.876 24.4766C11.9268 24.5083 11.9769 24.5412 12.0293 24.5703L12.3135 24.7119Z" fill="#366D84"/>
<path d="M13.541 25C13.3318 24.9906 13.1229 24.9623 12.917 24.9141L12.6113 24.8271C12.8137 24.8948 13.0203 24.9429 13.2285 24.9717L13.541 25Z" fill="#366D84"/>
<path d="M3.33301 1.1709L3.34668 1.16015C3.40142 1.11896 3.45772 1.08013 3.51367 1.04101C3.45299 1.08344 3.39226 1.12602 3.33301 1.1709Z" fill="#366D84"/>
</svg>
