<svg width="20" height="20" viewBox="0 0 20 20" fill="none" xmlns="http://www.w3.org/2000/svg">
<path d="M17.0078 0.754883C17.2816 0.754883 17.5039 0.977161 17.5039 1.25098V3.98926L17.502 4.04883C17.4917 4.1867 17.4439 4.31972 17.3643 4.43359C17.2847 4.54724 17.1766 4.63751 17.0508 4.69434L16.9951 4.71582C16.9569 4.72963 16.9175 4.73949 16.8779 4.74707L14.5283 5.51367C14.2682 5.59842 13.9884 5.45627 13.9033 5.19629C13.8185 4.93599 13.9604 4.65521 14.2207 4.57031L15.7451 4.07324C15.0548 3.40314 14.2511 2.85781 13.3701 2.46387C12.3102 1.98998 11.162 1.74504 10.001 1.74609H10C5.44162 1.74609 1.7461 5.44162 1.74609 10C1.74609 14.5584 5.44162 18.2539 10 18.2539C14.5584 18.2539 18.2539 14.5584 18.2539 10C18.2539 9.72625 18.4753 9.505 18.749 9.50488C19.0228 9.50488 19.2451 9.72618 19.2451 10C19.2451 15.106 15.106 19.2451 10 19.2451C4.89398 19.2451 0.754883 15.106 0.754883 10C0.754884 4.89398 4.89398 0.754883 10 0.754883V0.755859C11.3007 0.754665 12.5869 1.02773 13.7744 1.55859C14.7944 2.01467 15.7223 2.65207 16.5127 3.4375V1.25098C16.5127 0.977269 16.7341 0.755057 17.0078 0.754883Z" fill="#366D84"/>
</svg>
