<svg width="24" height="19" viewBox="0 0 24 19" fill="none" xmlns="http://www.w3.org/2000/svg">
<path d="M19.0557 0.130859C21.6241 0.256385 23.667 2.30455 23.667 4.8125V14.1875C23.667 16.6954 21.6241 18.7436 19.0557 18.8691L18.8057 18.875H5.19434L4.94434 18.8691C2.37585 18.7436 0.333008 16.6954 0.333008 14.1875V4.8125C0.333008 2.30455 2.37585 0.256384 4.94434 0.130859L5.19434 0.125H18.8057L19.0557 0.130859ZM5.19434 1.45312C3.3295 1.45327 1.75 2.92174 1.75 4.8125V14.1875C1.75 16.0783 3.3295 17.5467 5.19434 17.5469H8.375V1.45312H5.19434ZM9.79102 17.5469H18.8057C20.6705 17.5467 22.25 16.0783 22.25 14.1875V4.8125C22.25 2.98072 20.7677 1.54493 18.9795 1.45703L18.8057 1.45312H9.79102V17.5469ZM6.65527 7.27637C7.01246 7.31037 7.29102 7.59367 7.29102 7.9375C7.29101 8.28133 7.01246 8.56463 6.65527 8.59863L6.58301 8.60156H3.66699C3.27579 8.60156 2.95899 8.30425 2.95898 7.9375C2.95898 7.57075 3.27579 7.27344 3.66699 7.27344H6.58301L6.65527 7.27637ZM6.65527 4.15137C7.01246 4.18537 7.29102 4.46867 7.29102 4.8125C7.29101 5.15633 7.01246 5.43963 6.65527 5.47363L6.58301 5.47656H3.66699C3.27579 5.47656 2.95899 5.17925 2.95898 4.8125C2.95898 4.44575 3.27579 4.14844 3.66699 4.14844H6.58301L6.65527 4.15137Z" fill="#366D84"/>
</svg>
