<svg width="28" height="24" viewBox="0 0 28 24" fill="none" xmlns="http://www.w3.org/2000/svg">
<path d="M18.572 0.158203C20.048 0.158346 21.4096 0.921347 22.1385 2.15625L26.7986 10.0508C27.5118 11.2594 27.5118 12.7406 26.7986 13.9492L22.1385 21.8438L21.9949 22.0693C21.2393 23.1708 19.9558 23.8417 18.572 23.8418H9.42849L9.1531 23.833C7.87568 23.7505 6.71094 23.0974 6.00564 22.0693L5.86111 21.8438L1.20095 13.9492C0.53236 12.8161 0.490939 11.4432 1.07595 10.2803L1.20095 10.0508L5.86111 2.15625C6.54446 0.998348 7.78444 0.25537 9.1531 0.166992L9.42849 0.158203H18.572ZM9.42849 1.5C8.53269 1.5001 7.69106 1.93452 7.19216 2.66211L7.09744 2.81055L2.43826 10.7051C1.96507 11.5069 1.96507 12.4931 2.43826 13.2949L7.09744 21.1895L7.19216 21.3379C7.69106 22.0655 8.53269 22.4999 9.42849 22.5H18.572C19.5274 22.4999 20.4209 22.0063 20.9031 21.1895L25.5613 13.2949L25.6443 13.1416C26.0067 12.4212 26.0067 11.5788 25.6443 10.8584L25.5613 10.7051L20.9031 2.81055C20.4209 1.99367 19.5274 1.50014 18.572 1.5H9.42849ZM13.9998 7.38184C16.6671 7.38184 18.8113 9.45917 18.8113 12C18.8113 14.5408 16.6671 16.6182 13.9998 16.6182C11.3326 16.618 9.18923 14.5408 9.18923 12C9.18923 9.45924 11.3326 7.38195 13.9998 7.38184ZM13.9998 8.72363C12.1356 8.72375 10.6052 10.1808 10.6052 12C10.6052 13.8192 12.1356 15.2762 13.9998 15.2764C15.864 15.2764 17.3943 13.8193 17.3943 12C17.3943 10.1807 15.864 8.72363 13.9998 8.72363Z" fill="#366D84"/>
</svg>
