<svg width="24" height="24" viewBox="0 0 24 24" fill="none" xmlns="http://www.w3.org/2000/svg">
<path d="M12.1992 0.43457C15.1688 0.512108 18.0007 1.73353 20.1064 3.85547C22.2122 5.9775 23.425 8.8316 23.502 11.8242L23.5059 12.1143C23.5059 14.4252 22.8258 16.6849 21.5518 18.6064C20.2777 20.5278 18.4662 22.0249 16.3477 22.9092C14.2291 23.7934 11.8975 24.025 9.64844 23.5742C7.39957 23.1233 5.33329 22.0109 3.71192 20.377C2.09055 18.743 0.986488 16.6609 0.539063 14.3945C0.0917037 12.1281 0.321769 9.77853 1.19922 7.64355C2.0768 5.50848 3.56299 3.68333 5.46973 2.39941C7.37645 1.11553 9.61794 0.430671 11.9111 0.430664L12.1992 0.43457ZM15.832 2.57617C13.9601 1.79479 11.8993 1.58995 9.91211 1.98828C7.92498 2.38669 6.09965 3.3707 4.66699 4.81445C3.23431 6.25828 2.25856 8.09797 1.86328 10.1006C1.46804 12.1032 1.67093 14.179 2.44629 16.0654C3.22166 17.9518 4.53512 19.5638 6.21973 20.6982C7.90441 21.8326 9.885 22.4385 11.9111 22.4385L12.166 22.4346C14.7897 22.3661 17.2909 21.2859 19.1514 19.4111C21.0119 17.5362 22.0845 15.0153 22.1523 12.3711L22.1562 12.1143C22.1562 10.0725 21.5544 8.07661 20.4287 6.37891C19.3031 4.68132 17.7038 3.35756 15.832 2.57617ZM11.5439 22.1113L11.2002 22.0928C11.1933 22.0923 11.1865 22.0913 11.1797 22.0908C11.3008 22.0998 11.4223 22.1068 11.5439 22.1113ZM12.874 22.0693C12.7517 22.0815 12.6289 22.0891 12.5059 22.0967C12.6289 22.0891 12.7517 22.0815 12.874 22.0693ZM11.1309 22.0859C11.033 22.0782 10.9353 22.0693 10.8379 22.0586C10.9353 22.0693 11.033 22.0782 11.1309 22.0859ZM13.3564 22.0088C13.2617 22.0229 13.1665 22.0335 13.0713 22.0449C13.1665 22.0335 13.2617 22.0229 13.3564 22.0088ZM10.6768 22.0391C10.6142 22.0312 10.5516 22.0237 10.4893 22.0146C10.5516 22.0237 10.6142 22.0312 10.6768 22.0391ZM10.3105 21.9854C10.2496 21.9753 10.1887 21.9653 10.1279 21.9541C10.1887 21.9653 10.2496 21.9753 10.3105 21.9854ZM13.8203 21.9287C13.7306 21.9465 13.6401 21.9603 13.5498 21.9756C13.6401 21.9603 13.7306 21.9465 13.8203 21.9287ZM10.002 21.9297C9.9299 21.9155 9.85782 21.9016 9.78613 21.8857C9.85782 21.9016 9.9299 21.9155 10.002 21.9297ZM14.293 21.8223C14.2175 21.8412 14.1414 21.8579 14.0654 21.875C14.1414 21.8579 14.2175 21.8411 14.293 21.8223ZM9.64356 21.8525C9.56486 21.8339 9.4864 21.8145 9.4082 21.7939C9.4864 21.8145 9.56486 21.8339 9.64356 21.8525ZM9.33887 21.7754C9.25291 21.7522 9.16733 21.7277 9.08203 21.7021C9.16733 21.7277 9.25291 21.7521 9.33887 21.7754ZM14.7559 21.6943C14.6698 21.7204 14.5829 21.7439 14.4961 21.7676C14.5829 21.7439 14.6698 21.7204 14.7559 21.6943ZM8.96484 21.666C8.89038 21.6427 8.8161 21.6188 8.74219 21.5938C8.8161 21.6188 8.89038 21.6427 8.96484 21.666ZM15.2227 21.54C15.1317 21.5726 15.0401 21.603 14.9482 21.6328C15.0401 21.603 15.1317 21.5726 15.2227 21.54ZM8.62695 21.5537C8.56287 21.5311 8.49918 21.5074 8.43555 21.4834C8.49918 21.5074 8.56287 21.5311 8.62695 21.5537ZM15.6689 21.3682C15.5666 21.4104 15.4631 21.4495 15.3594 21.4883C15.4631 21.4495 15.5666 21.4104 15.6689 21.3682ZM8.26563 21.418C8.21598 21.3982 8.16653 21.378 8.11719 21.3574C8.16653 21.378 8.21598 21.3982 8.26563 21.418ZM16.0918 21.1816C16.0043 21.2227 15.9158 21.2614 15.8271 21.2998C15.9158 21.2614 16.0043 21.2227 16.0918 21.1816ZM7.9502 21.2861C7.88337 21.2568 7.81719 21.2261 7.75098 21.1953C7.81719 21.2261 7.88337 21.2568 7.9502 21.2861ZM7.64258 21.1455C7.57567 21.1134 7.5096 21.0795 7.44336 21.0459C7.5096 21.0795 7.57567 21.1134 7.64258 21.1455ZM16.5186 20.9688C16.4414 21.0096 16.3633 21.0482 16.2852 21.0869C16.3633 21.0482 16.4414 21.0096 16.5186 20.9688ZM7.30664 20.9766C7.23568 20.9391 7.16583 20.8996 7.0957 20.8604C7.16583 20.8996 7.23568 20.9391 7.30664 20.9766ZM16.9434 20.7305C16.8666 20.7761 16.7889 20.8198 16.7109 20.8633C16.7889 20.8198 16.8666 20.7761 16.9434 20.7305ZM7.00488 20.8105C6.95463 20.7818 6.90527 20.7514 6.85547 20.7217C6.90527 20.7514 6.95463 20.7818 7.00488 20.8105ZM3.19727 20.2998C3.29222 20.4025 3.38957 20.5031 3.48828 20.6025L3.58301 20.6953C3.55151 20.6643 3.51848 20.634 3.48731 20.6025C3.38876 20.5032 3.29207 20.4023 3.19727 20.2998ZM17.3477 20.4775C17.2685 20.5299 17.188 20.5799 17.1074 20.6299C17.188 20.5799 17.2685 20.5299 17.3477 20.4775ZM17.7344 20.208C17.664 20.2595 17.5931 20.3099 17.5215 20.3594C17.5931 20.3099 17.664 20.2595 17.7344 20.208ZM18.1113 19.918C18.0505 19.9671 17.9887 20.0149 17.9268 20.0625C17.9887 20.0149 18.0505 19.9671 18.1113 19.918ZM18.4727 19.6113C18.416 19.6617 18.3594 19.7118 18.3018 19.7607C18.3594 19.7118 18.416 19.6617 18.4727 19.6113ZM19.5811 18.457C19.3757 18.7091 19.1585 18.953 18.9277 19.1855L18.751 19.3584C18.7248 19.3835 18.6964 19.4068 18.6699 19.4316C18.7565 19.3505 18.8438 19.2691 18.9277 19.1846C19.1584 18.9521 19.3759 18.7089 19.5811 18.457ZM11.9111 10.3994C12.3646 10.3994 12.7986 10.5777 13.1172 10.8916C13.4353 11.2052 13.6123 11.6291 13.6123 12.0693V18.0381C13.6122 18.2145 13.5419 18.3857 13.4131 18.5127C13.2839 18.64 13.1066 18.7128 12.9209 18.7129C12.7354 18.7129 12.5589 18.6397 12.4297 18.5127C12.3008 18.3857 12.2296 18.2145 12.2295 18.0381V11.75H10.9014C10.7158 11.7499 10.5393 11.6759 10.4102 11.5488C10.2813 11.4218 10.21 11.2507 10.21 11.0742C10.2101 10.8978 10.2813 10.7266 10.4102 10.5996C10.5393 10.4726 10.7159 10.3995 10.9014 10.3994H11.9111ZM12.4199 18.9004C12.4959 18.9433 12.5775 18.9749 12.6621 18.9971C12.5774 18.9749 12.496 18.9432 12.4199 18.9004ZM22.2363 18.1006C22.104 18.3324 21.9645 18.5608 21.8164 18.7842C21.7768 18.8439 21.7349 18.902 21.6943 18.9609L21.8154 18.7842C21.9636 18.5606 22.1039 18.3326 22.2363 18.1006ZM12.2813 18.8066C12.3148 18.8337 12.3502 18.8584 12.3867 18.8809C12.378 18.8755 12.3689 18.8708 12.3604 18.8652L12.2813 18.8066ZM13.7012 18.668L13.6348 18.7412C13.6725 18.704 13.7054 18.6631 13.7363 18.6211C13.7248 18.6368 13.7137 18.6529 13.7012 18.668ZM19.877 18.0762C19.823 18.1493 19.766 18.2202 19.71 18.292C19.766 18.2202 19.823 18.1493 19.877 18.0762ZM20.1465 17.6904C20.1012 17.7583 20.0538 17.8248 20.0068 17.8916C20.0538 17.8248 20.1012 17.7583 20.1465 17.6904ZM20.4141 17.2676C20.3712 17.3394 20.3259 17.4097 20.2812 17.4805C20.3259 17.4097 20.3712 17.3394 20.4141 17.2676ZM20.6484 16.8516C20.5962 16.9492 20.5418 17.0456 20.4863 17.1416C20.5418 17.0456 20.5962 16.9492 20.6484 16.8516ZM20.8691 16.4121C20.821 16.514 20.7704 16.6146 20.7188 16.7148C20.7704 16.6146 20.821 16.514 20.8691 16.4121ZM21.0488 16.0107C21.0221 16.0743 20.9939 16.1372 20.9658 16.2002C20.9939 16.1372 21.0221 16.0743 21.0488 16.0107ZM21.2295 15.5498C21.2058 15.615 21.1803 15.6795 21.1553 15.7441C21.1803 15.6795 21.2058 15.615 21.2295 15.5498ZM2.60742 15.6045C2.52048 15.3691 2.4429 15.1309 2.37402 14.8906C2.4429 15.1309 2.52048 15.3691 2.60742 15.6045ZM21.3887 15.0742C21.3632 15.1567 21.3361 15.2386 21.3086 15.3203C21.3361 15.2386 21.3632 15.1567 21.3887 15.0742ZM21.5195 14.6133C21.4957 14.7062 21.4699 14.7985 21.4434 14.8906C21.4699 14.7985 21.4957 14.7062 21.5195 14.6133ZM2.35449 14.8174C2.3326 14.7388 2.31098 14.6601 2.29102 14.5811C2.31098 14.6601 2.3326 14.7388 2.35449 14.8174ZM2.25293 14.4209C2.23915 14.3623 2.22463 14.3039 2.21192 14.2451C2.22463 14.3039 2.23915 14.3623 2.25293 14.4209ZM21.6279 14.1426C21.6105 14.2269 21.5918 14.3108 21.5723 14.3945C21.5918 14.3108 21.6105 14.2269 21.6279 14.1426ZM23.7109 13.7432C23.745 13.4924 23.7727 13.2405 23.791 12.9873C23.7727 13.2405 23.745 13.4924 23.7109 13.7432ZM2.17481 14.0586C2.16387 14.003 2.15257 13.9474 2.14258 13.8916C2.15258 13.9474 2.16387 14.003 2.17481 14.0586ZM21.7197 13.6348C21.7031 13.743 21.6842 13.8506 21.6641 13.958C21.6842 13.8506 21.7031 13.743 21.7197 13.6348ZM2.11621 13.7334C2.10373 13.6567 2.09176 13.5799 2.08106 13.5029C2.09176 13.5799 2.10372 13.6567 2.11621 13.7334ZM21.7773 13.1934C21.7661 13.2969 21.7527 13.4 21.7383 13.5029C21.7527 13.4 21.7661 13.2969 21.7773 13.1934ZM2.0625 13.3555C2.05528 13.2972 2.0482 13.239 2.04199 13.1807C2.0482 13.239 2.05528 13.2972 2.0625 13.3555ZM2.02442 13.002C2.01875 12.9379 2.0142 12.8737 2.00977 12.8096C2.0142 12.8737 2.01875 12.9379 2.02442 13.002ZM21.8193 12.6836C21.8137 12.7808 21.8072 12.8778 21.7988 12.9746C21.8072 12.8778 21.8137 12.7808 21.8193 12.6836ZM2 12.6768C1.99586 12.6026 1.99371 12.5284 1.99121 12.4541C1.99372 12.5284 1.99586 12.6026 2 12.6768ZM21.8311 11.7549C21.8353 11.8745 21.8379 11.9943 21.8379 12.1143L21.835 12.3633C21.8337 12.4122 21.8291 12.4609 21.8271 12.5098C21.8324 12.3783 21.8377 12.2464 21.8379 12.1143C21.8379 11.9943 21.8353 11.8745 21.8311 11.7549ZM1.98633 12.2979C1.98522 12.2367 1.98535 12.1755 1.98535 12.1143C1.98535 12.1755 1.98522 12.2367 1.98633 12.2979ZM1.98633 11.9287C1.98786 11.8457 1.99056 11.7627 1.99414 11.6797C1.99056 11.7627 1.98786 11.8457 1.98633 11.9287ZM10.1875 11.7773L10.2617 11.8438C10.294 11.8698 10.3282 11.8932 10.3633 11.915C10.3004 11.876 10.2409 11.8309 10.1875 11.7783C10.1487 11.7401 10.1147 11.6977 10.083 11.6543C10.1146 11.6975 10.1488 11.7392 10.1875 11.7773ZM21.8105 11.3848C21.8177 11.4829 21.8229 11.5812 21.8271 11.6797C21.8229 11.5812 21.8177 11.4829 21.8105 11.3848ZM9.93067 11.3467C9.96109 11.4519 10.0096 11.5514 10.0732 11.6416C10.0096 11.5514 9.96107 11.452 9.93067 11.3467ZM1.99707 11.6123C2.00214 11.5107 2.00942 11.4092 2.01758 11.3076C2.00942 11.4092 2.00214 11.5107 1.99707 11.6123ZM9.94922 10.7461C9.91219 10.8506 9.89262 10.9614 9.89258 11.0742L9.89746 11.1729C9.9028 11.2258 9.91206 11.2781 9.92578 11.3291C9.90363 11.2467 9.8916 11.1609 9.8916 11.0742C9.89163 10.9613 9.91208 10.8506 9.94922 10.7461ZM2.02344 11.2334C2.03193 11.1366 2.04241 11.04 2.05371 10.9434C2.04241 11.04 2.03193 11.1366 2.02344 11.2334ZM21.7354 10.6826C21.7403 10.7167 21.7445 10.751 21.749 10.7852C21.7445 10.751 21.7402 10.7167 21.7354 10.6826ZM21.6738 10.3047C21.6843 10.3618 21.6937 10.4192 21.7031 10.4766C21.6937 10.4192 21.6843 10.3618 21.6738 10.3047ZM21.6074 9.97559C21.6218 10.0418 21.6354 10.1082 21.6484 10.1748C21.6354 10.1082 21.6218 10.0418 21.6074 9.97559ZM10.8018 10.085C10.7481 10.0902 10.6953 10.0998 10.6436 10.1133C10.6636 10.1081 10.6837 10.1026 10.7041 10.0986L10.8018 10.085ZM21.5225 9.61523C21.5402 9.68437 21.557 9.75372 21.5732 9.82324C21.557 9.75372 21.5402 9.68437 21.5225 9.61523ZM2.31348 9.56348C2.3214 9.53322 2.32872 9.50282 2.33692 9.47266C2.32872 9.50282 2.3214 9.53322 2.31348 9.56348ZM21.4375 9.30566C21.4508 9.35149 21.4639 9.39735 21.4766 9.44336C21.4639 9.39735 21.4508 9.35149 21.4375 9.30566ZM21.335 8.97559C21.3504 9.02274 21.3661 9.06981 21.3809 9.11719C21.3661 9.06981 21.3504 9.02274 21.335 8.97559ZM2.5 8.93262C2.5175 8.88005 2.53536 8.82763 2.55371 8.77539C2.53536 8.82763 2.5175 8.88005 2.5 8.93262ZM21.2129 8.625C21.2314 8.67505 21.2499 8.72506 21.2676 8.77539C21.2499 8.72506 21.2314 8.67505 21.2129 8.625ZM2.6377 8.54785C2.65014 8.51499 2.66202 8.48193 2.67481 8.44922C2.66202 8.48193 2.65014 8.51499 2.6377 8.54785ZM21.0693 8.25879C21.0961 8.32342 21.123 8.38797 21.1484 8.45312C21.123 8.38797 21.0961 8.32342 21.0693 8.25879ZM2.74512 8.27734C2.7707 8.21527 2.79644 8.15331 2.82324 8.0918C2.79643 8.15331 2.77071 8.21527 2.74512 8.27734ZM20.915 7.90527C20.9505 7.98235 20.9851 8.05979 21.0186 8.1377C20.9851 8.05979 20.9505 7.98235 20.915 7.90527ZM12.0557 8.03809L11.9111 8.04492C11.9955 8.04492 12.0779 8.03577 12.1582 8.02148C12.1243 8.02752 12.0904 8.03453 12.0557 8.03809ZM2.87207 7.98047C2.89899 7.92069 2.92603 7.86098 2.9541 7.80176C2.92602 7.86098 2.89899 7.92069 2.87207 7.98047ZM20.8057 7.67578C20.8231 7.71133 20.8414 7.74649 20.8584 7.78223C20.8414 7.74649 20.8231 7.71133 20.8057 7.67578ZM11.9111 5.5166C12.5163 5.5166 13.0068 6.01128 13.0068 6.62109C13.0067 7.23079 12.5162 7.72559 11.9111 7.72559C11.3061 7.72557 10.8156 7.23077 10.8154 6.62109C10.8154 6.01129 11.306 5.51662 11.9111 5.5166ZM3.04199 7.62207C3.06253 7.5809 3.0834 7.53991 3.10449 7.49902C3.0834 7.5399 3.06253 7.5809 3.04199 7.62207ZM3.19824 7.32324C3.22793 7.2684 3.25738 7.21345 3.28809 7.15918C3.25738 7.21345 3.22794 7.26841 3.19824 7.32324ZM20.3643 6.86914C20.4259 6.96996 20.4851 7.07207 20.543 7.1748C20.4849 7.07168 20.4251 6.96936 20.3633 6.86816L20.3643 6.86914ZM3.37402 7.01074C3.40433 6.95926 3.43558 6.90836 3.4668 6.85742C3.43557 6.90836 3.40433 6.95926 3.37402 7.01074ZM10.5234 6.89062C10.5272 6.9104 10.5325 6.92974 10.5371 6.94922C10.5339 6.93549 10.5292 6.92208 10.5264 6.9082L10.5234 6.89062ZM3.56445 6.7002C3.60581 6.63544 3.64856 6.57162 3.69141 6.50781C3.64855 6.57161 3.60581 6.63545 3.56445 6.7002ZM10.5264 6.33398C10.517 6.38036 10.5107 6.42769 10.5059 6.47559L10.498 6.62109C10.498 6.57208 10.5001 6.52332 10.5049 6.47559L10.5264 6.33398ZM19.9688 6.27148L20.165 6.55664C20.1 6.45859 20.0331 6.36204 19.9648 6.2666C19.9661 6.26829 19.9675 6.26979 19.9688 6.27148ZM13.3027 6.38086C13.3105 6.42676 13.3161 6.47323 13.3193 6.52051C13.3161 6.47324 13.3105 6.42675 13.3027 6.38086ZM3.73828 6.43652C3.79482 6.35387 3.85307 6.27239 3.91211 6.19141C3.85307 6.27238 3.79482 6.35387 3.73828 6.43652ZM10.7393 5.82422C10.6885 5.90001 10.6451 5.9812 10.6094 6.06641L10.5615 6.19727C10.5891 6.108 10.6244 6.02218 10.668 5.94141L10.7393 5.82422ZM3.95215 6.13574C4.00625 6.06259 4.06203 5.99066 4.11817 5.91895C4.06203 5.99066 4.00626 6.06259 3.95215 6.13574ZM19.7432 5.96777C19.7754 6.00953 19.8063 6.05242 19.8379 6.09473C19.8063 6.05242 19.7754 6.00953 19.7432 5.96777ZM19.5967 2.9541C19.8489 3.16906 20.0957 3.39273 20.3311 3.62988C21.0048 4.30887 21.5879 5.06179 22.0762 5.86816C21.5878 5.06174 21.0039 4.30892 20.3301 3.62988C20.0948 3.39282 19.8488 3.169 19.5967 2.9541ZM4.16504 5.85645C4.21639 5.79189 4.27026 5.72934 4.32324 5.66602C4.27025 5.72934 4.21639 5.7919 4.16504 5.85645ZM19.5225 5.69336C19.5664 5.7462 19.6095 5.79971 19.6523 5.85352C19.6095 5.79971 19.5664 5.74621 19.5225 5.69336ZM11.1211 5.43945C11.0836 5.465 11.0475 5.49252 11.0127 5.52148L10.9121 5.61328C10.9439 5.58123 10.977 5.55037 11.0117 5.52148L11.1211 5.43945ZM19.2832 5.41602C19.3301 5.46844 19.376 5.52174 19.4219 5.5752C19.376 5.52174 19.3301 5.46844 19.2832 5.41602ZM19.04 5.15332C19.0887 5.20394 19.136 5.25594 19.1836 5.30762C19.136 5.25593 19.0887 5.20394 19.04 5.15332ZM18.8105 4.92285C18.8495 4.96075 18.8875 4.99953 18.9258 5.03809C18.8875 4.99953 18.8495 4.96075 18.8105 4.92285ZM18.541 4.66992C18.582 4.70701 18.6227 4.74445 18.6631 4.78223C18.6227 4.74445 18.582 4.70701 18.541 4.66992ZM5.33887 4.61914C5.36504 4.59583 5.39059 4.57184 5.41699 4.54883C5.39059 4.57184 5.36504 4.59583 5.33887 4.61914ZM18.2871 4.44727C18.3266 4.48062 18.3653 4.51486 18.4043 4.54883C18.3653 4.51486 18.3266 4.48062 18.2871 4.44727ZM5.54981 4.43555C5.59388 4.39847 5.63795 4.36146 5.68262 4.3252C5.63795 4.36146 5.59388 4.39847 5.54981 4.43555ZM18.0078 4.2207C18.0527 4.25588 18.0974 4.29121 18.1416 4.32715C18.0974 4.29121 18.0527 4.25588 18.0078 4.2207ZM5.7959 4.23535C5.85643 4.18764 5.91696 4.13999 5.97852 4.09375C5.91696 4.13999 5.85643 4.18764 5.7959 4.23535ZM17.7266 4.00781C17.7698 4.03933 17.8127 4.07131 17.8555 4.10352C17.8127 4.07131 17.7698 4.03933 17.7266 4.00781ZM6.05957 4.03418C6.12591 3.98539 6.1923 3.93673 6.25977 3.88965C6.1923 3.93673 6.12591 3.98539 6.05957 4.03418ZM17.4229 3.7959C17.4784 3.83331 17.5341 3.87066 17.5889 3.90918C17.5341 3.87066 17.4784 3.83331 17.4229 3.7959ZM6.37109 3.81348C6.43278 3.77167 6.49505 3.73081 6.55762 3.69043C6.49505 3.73081 6.43278 3.77167 6.37109 3.81348ZM17.1387 3.6123C17.1852 3.64135 17.2323 3.66941 17.2783 3.69922C17.2323 3.66941 17.1852 3.64135 17.1387 3.6123ZM6.67871 3.61328C6.73151 3.58028 6.7845 3.54761 6.83789 3.51562C6.7845 3.54761 6.73151 3.58028 6.67871 3.61328ZM16.748 3.37988C16.8288 3.42531 16.9089 3.4719 16.9883 3.51953C16.9089 3.4719 16.8288 3.42532 16.748 3.37988ZM7.00781 3.41699C7.05955 3.38737 7.11181 3.35875 7.16406 3.33008C7.11181 3.35875 7.05955 3.38737 7.00781 3.41699ZM16.3906 3.1875C16.4909 3.23859 16.5902 3.29131 16.6885 3.3457C16.5902 3.29131 16.4909 3.23859 16.3906 3.1875ZM7.28906 3.26172C7.35441 3.22707 7.42022 3.19333 7.48633 3.16016C7.42022 3.19333 7.35441 3.22707 7.28906 3.26172ZM7.61035 3.09863C7.66801 3.0707 7.72598 3.04341 7.78418 3.0166C7.72598 3.04341 7.66801 3.0707 7.61035 3.09863ZM7.93848 2.94629C8.00283 2.91797 8.06785 2.8912 8.13281 2.86426C8.06785 2.8912 8.00283 2.91797 7.93848 2.94629ZM8.25195 2.81445C8.32043 2.78709 8.38987 2.76216 8.45899 2.73633C8.38987 2.76216 8.32043 2.78709 8.25195 2.81445ZM8.6084 2.68066C8.65272 2.66491 8.69763 2.65087 8.74219 2.63574C8.69763 2.65087 8.65272 2.66491 8.6084 2.68066ZM8.93848 2.56934C8.98374 2.55502 9.0297 2.54297 9.0752 2.5293C9.0297 2.54297 8.98374 2.55502 8.93848 2.56934ZM13.6055 2.25781C13.8308 2.29713 14.0549 2.34439 14.2773 2.39941C14.1732 2.37365 14.0687 2.34948 13.9639 2.32715L13.6055 2.25781ZM6.82227 1.26074C6.32844 1.49587 5.85009 1.76673 5.38965 2.07031C5.72691 1.84793 6.07302 1.64186 6.42871 1.45605L6.82227 1.26074ZM21.7812 11.0537C21.7913 11.1482 21.7993 11.243 21.8066 11.3379C21.7993 11.243 21.7913 11.1482 21.7812 11.0537ZM0.625001 8.27734C0.618235 8.29755 0.61115 8.31765 0.604493 8.33789C0.611151 8.31765 0.618235 8.29755 0.625001 8.27734ZM13.2803 6.27148C13.2866 6.29668 13.2929 6.32194 13.2979 6.34766C13.2929 6.32195 13.2866 6.29668 13.2803 6.27148ZM19.1348 2.5791C19.2518 2.66917 19.3685 2.75987 19.4824 2.85449C19.3685 2.75987 19.2518 2.66917 19.1348 2.5791Z" fill="#366D84"/>
</svg>
