<svg width="12" height="12" viewBox="0 0 12 12" fill="none" xmlns="http://www.w3.org/2000/svg">
<path d="M4.9834 0.473633C7.47388 0.47372 9.49316 2.4929 9.49316 4.9834C9.49312 6.11165 9.07743 7.14277 8.39258 7.93359L11.5264 11.0664L11.0664 11.5264L7.93359 8.39258C7.14277 9.07743 6.11165 9.49312 4.9834 9.49316C2.4929 9.49316 0.47372 7.47388 0.473633 4.9834C0.473633 2.49284 2.49284 0.473633 4.9834 0.473633ZM4.9834 1.12305C2.85148 1.12305 1.12305 2.85148 1.12305 4.9834C1.12313 7.11524 2.85154 8.84375 4.9834 8.84375C7.11519 8.84366 8.84366 7.11519 8.84375 4.9834C8.84375 2.85154 7.11524 1.12313 4.9834 1.12305Z" fill="#366D84"/>
</svg>
