<svg width="32" height="32" viewBox="0 0 32 32" fill="none" xmlns="http://www.w3.org/2000/svg">
<rect width="32" height="32" rx="16" fill="#366D84"/>
<path d="M16 17.3379C21.6736 17.3379 26.2725 21.8874 26.2725 27.5H25.0127C25.0127 22.5763 20.9772 18.585 16 18.585C11.0228 18.585 6.9873 22.5763 6.9873 27.5H5.72754C5.72754 21.8874 10.3264 17.3379 16 17.3379ZM16 4.5C19.2067 4.5 21.8066 7.09993 21.8066 10.3066C21.8064 13.5132 19.2066 16.1123 16 16.1123C12.7934 16.1123 10.1936 13.5132 10.1934 10.3066C10.1934 7.09993 12.7933 4.5 16 4.5ZM16 5.81641C13.5201 5.81641 11.5098 7.82678 11.5098 10.3066C11.51 12.7863 13.5203 14.7959 16 14.7959C18.4797 14.7959 20.49 12.7863 20.4902 10.3066C20.4902 7.82678 18.4799 5.81641 16 5.81641Z" fill="#0A222C"/>
</svg>
