<svg width="25" height="25" viewBox="0 0 25 25" fill="none" xmlns="http://www.w3.org/2000/svg">
<path d="M9.70508 9.02832C10.0836 9.02832 10.4131 9.35252 10.4131 9.78223C10.4128 10.2116 10.0834 10.5352 9.70508 10.5352H5.53809C3.61806 10.5353 2.08021 12.1616 2.08008 14.1299V19.5645C2.08008 21.5329 3.61798 23.159 5.53809 23.1592H20.1221C22.0422 23.159 23.5801 21.5329 23.5801 19.5645V14.1299C23.58 13.3125 23.312 12.5199 22.8213 11.8828L22.7197 11.7578C22.4541 11.4431 22.4841 10.9593 22.7832 10.6836L22.8398 10.6377C23.1275 10.4225 23.5295 10.4625 23.7734 10.75L23.917 10.9277C24.6139 11.8322 24.996 12.9601 24.9961 14.1299V19.5645C24.9961 22.3908 22.7965 24.6668 20.1221 24.667H5.53809C2.8637 24.6668 0.664062 22.3908 0.664062 19.5645V14.1299C0.664198 11.3037 2.86378 9.0285 5.53809 9.02832H9.70508ZM5.02246 24.9736L5.27051 24.9932C5.1309 24.9857 4.99297 24.9709 4.85645 24.9521C4.91159 24.9597 4.96679 24.9679 5.02246 24.9736ZM20.8027 24.9521C20.6665 24.9708 20.5289 24.9858 20.3896 24.9932C20.5289 24.9858 20.6665 24.9708 20.8027 24.9521ZM2.02637 23.5752C2.05505 23.6026 2.08499 23.6286 2.11426 23.6553C2.08907 23.6323 2.06284 23.6104 2.03809 23.5869L2.02637 23.5752ZM23.6221 23.5869C23.5973 23.6104 23.5711 23.6323 23.5459 23.6553C23.5752 23.6286 23.6051 23.6026 23.6338 23.5752L23.6221 23.5869ZM1.41016 22.874C1.50034 22.9962 1.59473 23.1148 1.69434 23.2285C1.59475 23.1148 1.50032 22.9962 1.41016 22.874ZM23.9648 23.2285C24.0521 23.1289 24.1348 23.0251 24.2148 22.9189C24.1378 23.0211 24.0593 23.1217 23.9756 23.2178L23.9648 23.2285ZM20.4346 22.8096C20.4164 22.8115 20.3981 22.8119 20.3799 22.8135C20.3981 22.8119 20.4164 22.8115 20.4346 22.8096ZM20.8828 22.7275C20.7495 22.7625 20.613 22.7883 20.4736 22.8047C20.613 22.7883 20.7495 22.7625 20.8828 22.7275ZM5.08984 22.791C5.08629 22.7905 5.08265 22.7906 5.0791 22.79C5.08265 22.7906 5.08629 22.7905 5.08984 22.791ZM4.81641 22.7373C4.80536 22.7346 4.7942 22.7324 4.7832 22.7295C4.7942 22.7324 4.80536 22.7346 4.81641 22.7373ZM21.0312 22.6846C21.0096 22.6915 20.9877 22.6977 20.9658 22.7041C20.9877 22.6977 21.0096 22.6915 21.0312 22.6846ZM21.3164 22.5771C21.3032 22.5829 21.2897 22.5882 21.2764 22.5937C21.2897 22.5882 21.3032 22.5829 21.3164 22.5771ZM4.26172 22.54C4.25618 22.5374 4.25064 22.5349 4.24512 22.5322C4.25064 22.5349 4.25618 22.5374 4.26172 22.54ZM21.5801 22.4473C21.5698 22.453 21.5592 22.4583 21.5488 22.4639C21.5592 22.4583 21.5698 22.453 21.5801 22.4473ZM4.02539 22.416C3.97534 22.387 3.92723 22.355 3.87891 22.3232C3.92723 22.355 3.97534 22.387 4.02539 22.416ZM21.8418 22.2832C21.7991 22.3127 21.755 22.3398 21.7109 22.3672C21.755 22.3398 21.7991 22.3127 21.8418 22.2832ZM3.12988 21.6406C3.2594 21.804 3.40434 21.9535 3.56152 22.0879C3.40433 21.9535 3.25941 21.804 3.12988 21.6406ZM22.0898 22.0937C22.0415 22.1348 21.9911 22.1729 21.9404 22.2109C21.9911 22.1729 22.0415 22.1348 22.0898 22.0937ZM22.3018 21.8955C22.2662 21.9317 22.2295 21.9665 22.1924 22.001C22.2295 21.9665 22.2662 21.9317 22.3018 21.8955ZM22.5049 21.668C22.4708 21.71 22.4345 21.7499 22.3984 21.79C22.4345 21.7499 22.4708 21.71 22.5049 21.668ZM22.6885 21.418C22.6575 21.4646 22.625 21.5099 22.5918 21.5547C22.625 21.5099 22.6575 21.4646 22.6885 21.418ZM2.91016 21.3223C2.87327 21.2624 2.83687 21.2021 2.80371 21.1396C2.83687 21.2021 2.87327 21.2624 2.91016 21.3223ZM22.8457 21.1572C22.8155 21.2133 22.7823 21.2673 22.749 21.3213C22.7823 21.2673 22.8155 21.2133 22.8457 21.1572ZM2.75098 21.0312C2.72453 20.9767 2.69737 20.9224 2.67383 20.8662C2.69737 20.9224 2.72453 20.9767 2.75098 21.0312ZM22.9727 20.8926C22.9531 20.9382 22.9317 20.9828 22.9102 21.0273C22.9317 20.9828 22.9531 20.9382 22.9727 20.8926ZM23.0703 20.6426C23.0685 20.648 23.0673 20.6537 23.0654 20.6592C23.0673 20.6537 23.0685 20.648 23.0703 20.6426ZM2.59082 20.6465C2.58512 20.6296 2.57966 20.6127 2.57422 20.5957C2.57966 20.6127 2.58512 20.6296 2.59082 20.6465ZM23.1572 20.3398C23.1552 20.3487 23.1525 20.3574 23.1504 20.3662C23.1525 20.3574 23.1552 20.3487 23.1572 20.3398ZM23.2471 19.5645L23.2422 19.7324C23.2395 19.7881 23.2358 19.8435 23.2305 19.8984C23.2412 19.7889 23.2471 19.6778 23.2471 19.5654V19.5645ZM2.41309 19.5684C2.41314 19.6287 2.41577 19.6885 2.41895 19.748C2.41867 19.7428 2.41725 19.7376 2.41699 19.7324L2.41309 19.5684ZM7.10059 15.5498C7.76574 15.5498 8.33008 16.1181 8.33008 16.8477C8.32997 17.5771 7.76568 18.1445 7.10059 18.1445C6.43564 18.1443 5.87218 17.5769 5.87207 16.8477C5.87207 16.1183 6.43557 15.55 7.10059 15.5498ZM12.3096 15.5498C12.9746 15.55 13.5381 16.1183 13.5381 16.8477C13.538 17.5769 12.9745 18.1443 12.3096 18.1445C11.6445 18.1445 11.0802 17.5771 11.0801 16.8477C11.0801 16.1181 11.6444 15.5498 12.3096 15.5498ZM6.72461 18.4277C6.7953 18.446 6.8673 18.4619 6.94141 18.4697C6.86728 18.4619 6.79532 18.446 6.72461 18.4277ZM11.9326 18.4277C12.0033 18.446 12.0753 18.4619 12.1494 18.4697C12.0753 18.4619 12.0033 18.446 11.9326 18.4277ZM11.1152 17.8984C11.1723 17.969 11.2351 18.0342 11.3027 18.0937C11.2351 18.0342 11.1723 17.969 11.1152 17.8984ZM2.4248 13.8574C2.42204 13.8921 2.41968 13.9269 2.41797 13.9619L2.41309 14.1299C2.41309 14.0381 2.41764 13.9473 2.4248 13.8574ZM0.352539 13.6357C0.343619 13.7385 0.3383 13.842 0.334961 13.9463C0.338294 13.842 0.343626 13.7385 0.352539 13.6357ZM23.1982 13.5635C23.2087 13.6255 23.2156 13.6882 23.2227 13.751C23.2156 13.6882 23.2087 13.6255 23.1982 13.5635ZM23.1348 13.2705C23.1505 13.3305 23.1624 13.3913 23.1748 13.4521C23.1624 13.3913 23.1505 13.3304 23.1348 13.2705ZM23.0547 13.0088C23.0757 13.0686 23.0937 13.1294 23.1113 13.1904C23.0937 13.1294 23.0757 13.0686 23.0547 13.0088ZM20.3408 1.08105C21.4339 0.0507265 23.1204 0.0852809 24.1738 1.18457C24.7025 1.73631 24.996 2.47243 24.9961 3.25879C24.9961 4.04514 24.7026 4.78191 24.1738 5.33496L18.2285 11.5391C17.5033 12.2958 16.5426 12.7109 15.5234 12.7109H13.8721C13.4936 12.7109 13.1641 12.3858 13.1641 11.9561V10.2324C13.1641 9.15533 13.5655 8.14579 14.292 7.38867L20.2363 1.18457L20.3408 1.08105ZM2.63965 12.9141C2.64299 12.9054 2.64503 12.8963 2.64844 12.8877C2.64503 12.8963 2.64299 12.9054 2.63965 12.9141ZM22.9502 12.749C22.9708 12.795 22.9893 12.8418 23.0078 12.8887C22.9893 12.8418 22.9708 12.795 22.9502 12.749ZM13.1992 12.7871C13.2157 12.8017 13.2336 12.8146 13.251 12.8281C13.237 12.8173 13.2224 12.8074 13.209 12.7959L13.1992 12.7871ZM2.72168 12.7256C2.7423 12.6807 2.76168 12.6355 2.78418 12.5918C2.76168 12.6355 2.74229 12.6807 2.72168 12.7256ZM17.375 12.5918C17.3212 12.6197 17.2668 12.6464 17.2119 12.6719C17.2668 12.6464 17.3212 12.6197 17.375 12.5918ZM22.8232 12.4951C22.8477 12.5391 22.8702 12.5839 22.8926 12.6289C22.8702 12.5839 22.8477 12.5391 22.8232 12.4951ZM2.86523 12.4492C2.88841 12.4092 2.91079 12.3689 2.93555 12.3301C2.91079 12.3689 2.88841 12.4092 2.86523 12.4492ZM22.6729 12.25C22.7017 12.2926 22.7291 12.336 22.7559 12.3799C22.7291 12.336 22.7017 12.2926 22.6729 12.25ZM3.03027 12.1924C3.05534 12.1571 3.07909 12.1211 3.10547 12.0869C3.07909 12.1211 3.05534 12.1571 3.03027 12.1924ZM22.5576 12.0869C22.5724 12.1062 22.5852 12.1269 22.5996 12.1465C22.5564 12.0877 22.5131 12.0286 22.4658 11.9727L22.5576 12.0869ZM12.8301 11.9561L12.8359 12.0684C12.8373 12.0825 12.8399 12.0964 12.8418 12.1104C12.835 12.0602 12.8301 12.0091 12.8301 11.957V11.9561ZM18.1631 12.0605C18.143 12.0777 18.1219 12.0936 18.1016 12.1104C18.1286 12.088 18.156 12.066 18.1826 12.043L18.1631 12.0605ZM3.20117 11.9727C3.23662 11.9309 3.27116 11.8885 3.30859 11.8486C3.27116 11.8885 3.23662 11.9309 3.20117 11.9727ZM3.40234 11.7559C3.44022 11.7187 3.47797 11.6816 3.51758 11.6465C3.47797 11.6816 3.44022 11.7187 3.40234 11.7559ZM3.63184 11.5508C3.67379 11.5169 3.71617 11.4838 3.75977 11.4521C3.71616 11.4838 3.67379 11.5169 3.63184 11.5508ZM3.87012 11.377C3.91312 11.3485 3.95562 11.3193 4 11.293C3.95562 11.3193 3.91312 11.3485 3.87012 11.377ZM23.1826 2.25976C22.6774 1.73264 21.8747 1.70166 21.333 2.16113L21.2285 2.25976H21.2275L15.2832 8.46387C14.8354 8.93242 14.5801 9.57634 14.5801 10.2324V11.2021H15.5234C16.1729 11.2021 16.7823 10.9367 17.2373 10.4619L23.1826 4.25879L23.2734 4.15332C23.4727 3.89998 23.5801 3.58611 23.5801 3.25879C23.5799 2.88477 23.4401 2.52852 23.1826 2.25976ZM4.48926 11.0576C4.49225 11.0565 4.49505 11.0548 4.49805 11.0537C4.49505 11.0548 4.49225 11.0565 4.48926 11.0576ZM4.77246 10.9678C4.78154 10.9654 4.7907 10.9632 4.7998 10.9609C4.79069 10.9633 4.78154 10.9654 4.77246 10.9678ZM9.95312 10.8359C9.87352 10.8562 9.79073 10.8682 9.70508 10.8682L9.81152 10.8623C9.85984 10.8572 9.90701 10.8477 9.95312 10.8359ZM15.8965 10.832C15.8722 10.8366 15.8478 10.8401 15.8232 10.8437C15.8478 10.8401 15.8722 10.8366 15.8965 10.832ZM16.0898 10.7852C16.061 10.7936 16.0321 10.8014 16.0029 10.8086C16.0321 10.8014 16.061 10.7936 16.0898 10.7852ZM16.2744 10.7207C16.2418 10.7339 16.209 10.7464 16.1758 10.7578C16.209 10.7464 16.2418 10.7339 16.2744 10.7207ZM16.457 10.6357C16.4241 10.6531 16.3912 10.6701 16.3574 10.6855C16.3912 10.6701 16.4241 10.6531 16.457 10.6357ZM22.4189 10.5947C22.4087 10.6088 22.3992 10.6233 22.3896 10.6377C22.4175 10.5955 22.4473 10.5541 22.4814 10.5156L22.4189 10.5947ZM16.6221 10.54C16.5905 10.5606 16.5589 10.5809 16.5264 10.5996C16.5589 10.5809 16.5905 10.5606 16.6221 10.54ZM10.5449 10.4219C10.5056 10.4779 10.4618 10.5299 10.4131 10.5771C10.4617 10.53 10.5056 10.4779 10.5449 10.4219ZM23.0625 3.87402C23.0266 3.92831 22.9871 3.98068 22.9414 4.02832L16.9971 10.2324L16.8428 10.377L16.9971 10.2314L22.9414 4.02734C22.9869 3.97982 23.0267 3.92813 23.0625 3.87402ZM12.8408 9.9248C12.8341 10.0266 12.8301 10.1294 12.8301 10.2324V10.2314C12.8301 10.1286 12.8341 10.0264 12.8408 9.9248ZM14.9131 10.2236C14.9133 10.157 14.9166 10.0905 14.9229 10.0244C14.9167 10.0905 14.9133 10.157 14.9131 10.2236ZM23.2119 10.168C23.152 10.17 23.0922 10.1776 23.0332 10.1904C23.0922 10.1776 23.152 10.17 23.2119 10.168ZM10.7256 10.001C10.7238 10.0102 10.7208 10.0192 10.7188 10.0283C10.7218 10.0147 10.725 10.0011 10.7275 9.9873L10.7256 10.001ZM14.9277 9.9873C14.9337 9.93326 14.9413 9.8795 14.9512 9.82617C14.9413 9.8795 14.9337 9.93326 14.9277 9.9873ZM14.9688 9.74512C14.9776 9.70545 14.9871 9.66603 14.998 9.62695C14.9871 9.66602 14.9776 9.70545 14.9688 9.74512ZM15.0205 9.55176C15.0336 9.51058 15.0481 9.46999 15.0635 9.42969C15.0481 9.46998 15.0336 9.51058 15.0205 9.55176ZM15.0918 9.3584C15.1073 9.32155 15.1232 9.28494 15.1406 9.24902C15.1232 9.28493 15.1073 9.32156 15.0918 9.3584ZM15.1709 9.18848C15.1948 9.14279 15.2211 9.09853 15.248 9.05469C15.2211 9.09852 15.1948 9.1428 15.1709 9.18848ZM3.56152 9.10156C3.71086 9.03739 3.86365 8.98035 4.01953 8.93066C3.86366 8.98035 3.71085 9.03739 3.56152 9.10156ZM15.3867 8.85351C15.3466 8.90481 15.3088 8.95794 15.2734 9.01269C15.3087 8.95809 15.3458 8.90467 15.3857 8.85351L15.5234 8.69433L15.3867 8.85351ZM4.81348 8.74707C4.63632 8.77293 4.46205 8.8085 4.29102 8.85254C4.46206 8.8085 4.6363 8.77293 4.81348 8.74707ZM9.91504 8.7168C9.96641 8.72776 10.0162 8.74319 10.0645 8.76172C10.0143 8.7425 9.96258 8.72688 9.90918 8.71582L9.91504 8.7168ZM5.27051 8.70215C5.20673 8.70554 5.14324 8.71004 5.08008 8.71582C5.23103 8.70202 5.38376 8.69434 5.53809 8.69433L5.27051 8.70215ZM13.5459 7.79394C13.5815 7.73939 13.6172 7.68484 13.6553 7.63183C13.6172 7.68484 13.5815 7.73939 13.5459 7.79394ZM23.1172 3.7832C23.1074 3.80177 23.0968 3.8199 23.0859 3.83789C23.0968 3.8199 23.1074 3.80177 23.1172 3.7832ZM23.1562 3.70019C23.1514 3.71161 23.1469 3.72313 23.1416 3.73437C23.1469 3.72314 23.1514 3.71161 23.1562 3.70019ZM23.1904 3.60937C23.1855 3.62448 23.1804 3.63944 23.1748 3.6543C23.1804 3.63944 23.1855 3.62448 23.1904 3.60937ZM23.2422 3.36719C23.236 3.43347 23.2225 3.49839 23.2051 3.56152C23.2132 3.53221 23.2209 3.50272 23.2266 3.47266L23.2422 3.36719ZM23.2432 3.16504L23.2471 3.25879C23.2471 3.22565 23.245 3.19276 23.2422 3.16016C23.2423 3.1618 23.243 3.16339 23.2432 3.16504ZM23.2275 3.05762C23.2299 3.07062 23.2325 3.08356 23.2344 3.09668C23.2325 3.08356 23.2299 3.07062 23.2275 3.05762ZM23.1699 2.84961C23.1797 2.87464 23.1884 2.90003 23.1963 2.92578C23.1884 2.90004 23.1797 2.87462 23.1699 2.84961ZM23.1338 2.76855C23.144 2.78953 23.1542 2.81043 23.1631 2.83203C23.1542 2.81044 23.144 2.78952 23.1338 2.76855ZM23.0684 2.65137C23.0372 2.60347 23.0016 2.55851 22.9629 2.51562L23.0117 2.57031C23.0321 2.59625 23.0505 2.62383 23.0684 2.65137ZM24.3574 22.7227C24.3287 22.7645 24.2993 22.8057 24.2695 22.8467C24.2993 22.8057 24.3287 22.7645 24.3574 22.7227ZM3.77734 22.2559C3.70318 22.2028 3.63091 22.1472 3.56152 22.0879C3.63091 22.1472 3.70318 22.2028 3.77734 22.2559ZM3.10742 21.6084C3.05402 21.5394 3.00206 21.469 2.9541 21.3955C3.00206 21.469 3.05403 21.5394 3.10742 21.6084ZM3.10742 21.6084C3.11543 21.6187 3.12176 21.6304 3.12988 21.6406C3.12176 21.6304 3.11543 21.6187 3.10742 21.6084ZM11.3652 18.1445C11.3442 18.1278 11.3229 18.1115 11.3027 18.0937C11.3229 18.1115 11.3442 18.1278 11.3652 18.1445ZM13.8398 17.1709C13.8327 17.208 13.823 17.2442 13.8135 17.2803C13.823 17.2442 13.8327 17.208 13.8398 17.1709ZM23.2354 13.8525L23.2471 14.1299C23.2471 14.0327 23.2416 13.9359 23.2334 13.8398C23.2338 13.8441 23.235 13.8483 23.2354 13.8525ZM22.2998 11.707C22.2925 11.6904 22.2867 11.6732 22.2803 11.6562C22.2867 11.6732 22.2925 11.6904 22.2998 11.707ZM10.5918 10.3506C10.5804 10.3699 10.5682 10.3887 10.5557 10.4072C10.5682 10.3887 10.5804 10.3699 10.5918 10.3506ZM3.39355 9.17773C3.44908 9.15144 3.50498 9.12586 3.56152 9.10156C3.50499 9.12586 3.44908 9.15144 3.39355 9.17773ZM13.4805 7.89746C13.5018 7.86266 13.5236 7.82816 13.5459 7.79394C13.5236 7.82816 13.5018 7.86266 13.4805 7.89746ZM23.2041 2.95215C23.2119 2.98008 23.218 3.00847 23.2236 3.03711C23.218 3.00848 23.212 2.98007 23.2041 2.95215ZM23.0869 2.68262C23.0972 2.69976 23.1078 2.7167 23.1172 2.73437C23.1078 2.71671 23.0973 2.69975 23.0869 2.68262Z" fill="#366D84"/>
</svg>
